{"glyphs":{"0":{"ha":986,"x_min":90,"x_max":896,"o":"m 492 -17 q 201 130 311 -17 q 90 486 90 276 q 139 735 90 621 q 281 919 188 849 q 494 989 375 989 q 785 842 675 989 q 896 486 896 696 q 847 238 896 351 q 705 53 799 124 q 492 -17 611 -17 m 257 179 q 303 114 257 179 q 494 49 349 49 q 731 178 640 49 q 821 486 821 308 q 729 794 821 664 q 492 924 638 924 q 256 794 346 924 q 165 486 165 665 q 257 179 165 310 z "},"1":{"ha":465,"x_min":42,"x_max":319,"o":"m 249 0 l 249 904 l 61 840 l 42 897 l 264 979 l 319 979 l 319 0 l 249 0 z "},"2":{"ha":819,"x_min":67,"x_max":731,"o":"m 67 0 l 67 54 l 429 382 q 597 565 550 492 q 644 714 644 638 q 580 864 644 806 q 425 922 515 922 q 270 878 336 922 q 140 742 204 833 l 86 778 q 233 935 156 883 q 432 986 311 986 q 638 909 556 986 q 721 717 721 832 q 667 542 721 621 q 478 339 614 463 l 181 69 l 731 69 l 731 0 l 67 0 z "},"3":{"ha":847,"x_min":75,"x_max":749,"o":"m 432 -17 q 75 158 210 -17 l 131 204 q 433 49 253 49 q 604 110 535 49 q 674 267 674 171 q 590 422 674 367 q 371 478 506 478 l 318 478 l 300 518 l 635 904 l 125 904 l 125 972 l 733 972 l 733 921 l 404 544 q 527 523 469 540 q 636 474 585 506 q 718 390 688 443 q 749 267 749 336 q 655 63 749 143 q 432 -17 561 -17 z "},"4":{"ha":922,"x_min":67,"x_max":846,"o":"m 618 0 l 618 238 l 92 238 l 67 292 l 622 979 l 688 979 l 688 300 l 846 300 l 846 238 l 688 238 l 688 0 l 618 0 m 154 300 l 618 300 l 618 875 l 154 300 z "},"5":{"ha":840,"x_min":79,"x_max":758,"o":"m 419 -17 q 236 27 325 -17 q 79 140 147 71 l 131 192 q 422 49 274 49 q 610 119 536 49 q 683 296 683 190 q 609 462 683 397 q 417 526 535 526 q 197 465 310 526 l 142 501 l 169 972 l 715 972 l 715 903 l 233 903 l 210 539 q 425 592 318 592 q 663 509 568 592 q 758 296 758 426 q 663 71 758 158 q 419 -17 567 -17 z "},"6":{"ha":892,"x_min":89,"x_max":800,"o":"m 460 -17 q 213 81 310 -17 q 119 231 149 144 q 89 463 89 317 q 198 838 89 688 q 485 989 307 989 q 765 876 628 989 l 719 821 q 479 924 604 924 q 249 790 336 924 q 161 443 161 657 l 161 419 q 465 600 267 600 q 701 516 601 600 q 800 303 800 432 q 702 74 800 165 q 460 -17 604 -17 m 465 49 q 653 122 581 49 q 725 303 725 196 q 651 469 725 403 q 461 536 576 536 q 268 463 346 536 q 190 293 190 389 q 269 119 190 189 q 465 49 347 49 z "},"7":{"ha":815,"x_min":94,"x_max":739,"o":"m 217 0 l 658 903 l 94 903 l 94 972 l 739 972 l 739 919 l 296 0 l 217 0 z "},"8":{"ha":875,"x_min":76,"x_max":799,"o":"m 438 -14 q 179 63 282 -14 q 76 263 76 140 q 136 408 76 344 q 292 503 196 471 q 110 732 110 576 q 208 914 110 842 q 438 986 307 986 q 667 914 568 986 q 765 729 765 842 q 583 503 765 576 q 739 408 679 471 q 799 260 799 344 q 695 63 799 140 q 438 -14 592 -14 m 229 111 q 268 81 229 111 q 438 51 307 51 q 646 112 568 51 q 724 260 724 172 q 640 409 724 350 q 438 468 557 468 q 234 408 317 468 q 151 257 151 349 q 229 111 151 171 m 258 585 q 295 557 258 585 q 438 529 332 529 q 617 585 543 529 q 690 732 690 642 q 617 867 690 814 q 438 921 544 921 q 258 867 331 921 q 185 729 185 813 q 258 585 185 642 z "},"9":{"ha":892,"x_min":92,"x_max":803,"o":"m 407 -17 q 114 104 257 -17 l 160 160 q 408 49 283 49 q 640 180 550 49 q 731 517 731 311 l 731 550 q 428 363 626 363 q 187 449 282 363 q 92 663 92 535 q 188 894 92 800 q 433 989 283 989 q 681 890 582 989 q 803 508 803 768 q 690 132 803 281 q 407 -17 578 -17 m 431 426 q 626 502 550 426 q 701 676 701 578 q 623 852 701 781 q 425 924 544 924 q 238 847 310 924 q 167 663 167 769 q 241 493 167 560 q 431 426 315 426 z "}," ":{"ha":417,"x_min":0,"x_max":0,"o":""},"!":{"ha":350,"x_min":129,"x_max":221,"o":"m 129 0 l 129 118 l 221 118 l 221 0 l 129 0 m 156 254 l 135 875 l 135 972 l 215 972 l 215 875 l 194 254 l 156 254 z "},"\"":{"ha":569,"x_min":94,"x_max":483,"o":"m 94 619 l 143 972 l 233 972 l 233 965 l 135 619 l 94 619 m 344 619 l 393 972 l 483 972 l 483 965 l 385 619 l 344 619 z "},"#":{"ha":972,"x_min":68,"x_max":903,"o":"m 192 0 l 236 260 l 68 260 l 68 325 l 247 325 l 304 653 l 124 653 l 124 718 l 315 718 l 358 972 l 425 972 l 382 718 l 669 718 l 713 972 l 779 972 l 736 718 l 903 718 l 903 653 l 725 653 l 668 325 l 847 325 l 847 260 l 657 260 l 613 0 l 546 0 l 590 260 l 303 260 l 258 0 l 192 0 m 314 325 l 601 325 l 658 653 l 371 653 l 314 325 z "},"$":{"ha":878,"x_min":83,"x_max":776,"o":"m 413 -136 l 413 1 q 83 150 233 17 l 129 204 q 415 65 264 78 l 415 460 q 190 556 258 494 q 121 722 121 617 q 203 898 121 826 q 413 972 286 969 l 413 1053 l 479 1053 l 479 969 q 747 856 621 958 l 701 801 q 476 907 599 892 l 476 517 q 706 421 635 483 q 776 256 776 358 q 694 76 776 147 q 479 0 611 6 l 479 -136 l 413 -136 m 476 63 q 642 119 579 65 q 706 253 706 172 q 657 372 706 328 q 476 446 608 415 l 476 63 m 415 531 l 415 910 q 253 856 315 908 q 192 725 192 803 q 239 608 192 653 q 415 531 286 563 z "},"%":{"ha":1144,"x_min":76,"x_max":1068,"o":"m 178 0 l 892 972 l 967 972 l 253 0 l 178 0 m 853 -11 q 700 62 760 -11 q 640 238 640 135 q 701 413 640 339 q 856 486 761 486 q 1008 413 949 486 q 1068 238 1068 339 q 1008 63 1068 136 q 853 -11 947 -11 m 856 49 q 956 103 917 49 q 996 238 996 157 q 954 372 996 318 q 853 426 913 426 q 752 372 792 426 q 713 238 713 317 q 754 103 713 157 q 856 49 796 49 m 289 486 q 136 559 196 486 q 76 735 76 632 q 137 910 76 836 q 292 983 197 983 q 444 910 385 983 q 504 735 504 836 q 444 560 504 633 q 289 486 383 486 m 292 546 q 392 600 353 546 q 432 735 432 654 q 390 869 432 815 q 289 924 349 924 q 188 869 228 924 q 149 735 149 814 q 190 600 149 654 q 292 546 232 546 z "},"&":{"ha":967,"x_min":68,"x_max":921,"o":"m 864 -19 l 696 154 q 367 -14 551 -14 q 153 63 238 -14 q 68 258 68 139 q 319 543 68 450 q 236 658 261 607 q 211 768 211 708 q 280 926 211 863 q 454 989 349 989 q 613 927 549 989 q 678 775 678 865 q 439 524 678 606 l 694 261 q 821 497 761 354 l 886 471 q 742 213 815 311 l 921 28 l 864 -19 m 368 49 q 650 201 519 49 l 363 499 q 196 397 251 460 q 140 258 140 335 q 205 109 140 169 q 368 49 269 49 m 396 568 q 606 775 606 635 q 561 884 606 840 q 451 928 517 928 q 331 882 378 928 q 283 768 283 836 q 308 679 283 722 q 396 568 332 636 z "},"'":{"ha":319,"x_min":94,"x_max":233,"o":"m 94 619 l 143 972 l 233 972 l 233 965 l 135 619 l 94 619 z "},"(":{"ha":597,"x_min":99,"x_max":513,"o":"m 483 -196 q 198 61 297 -90 q 99 399 99 213 q 198 736 99 585 q 483 993 297 888 l 513 947 q 171 399 171 738 q 513 -150 171 60 l 483 -196 z "},")":{"ha":597,"x_min":85,"x_max":499,"o":"m 114 -196 l 85 -150 q 426 399 426 60 q 85 947 426 738 l 114 993 q 399 736 300 888 q 499 399 499 585 q 399 61 499 213 q 114 -196 300 -90 z "},"*":{"ha":597,"x_min":104,"x_max":493,"o":"m 269 564 l 282 740 l 135 640 l 104 692 l 268 769 l 104 847 l 135 899 l 282 799 l 269 975 l 328 975 l 315 799 l 463 899 l 493 847 l 329 769 l 493 692 l 463 640 l 315 740 l 328 564 l 269 564 z "},"+":{"ha":889,"x_min":108,"x_max":781,"o":"m 410 157 l 410 456 l 108 456 l 108 522 l 410 522 l 410 821 l 479 821 l 479 522 l 781 522 l 781 456 l 479 456 l 479 157 l 410 157 z "},",":{"ha":319,"x_min":74,"x_max":206,"o":"m 90 -149 l 74 -114 q 151 -12 151 -75 l 151 0 l 114 0 l 114 118 l 206 118 l 206 15 q 179 -87 206 -50 q 90 -149 153 -125 z "},"-":{"ha":567,"x_min":97,"x_max":469,"o":"m 97 374 l 97 451 l 469 451 l 469 374 l 97 374 z "},".":{"ha":319,"x_min":114,"x_max":206,"o":"m 114 0 l 114 118 l 206 118 l 206 0 l 114 0 z "},"/":{"ha":694,"x_min":-25,"x_max":699,"o":"m -25 -178 l 631 1108 l 699 1108 l 43 -178 l -25 -178 z "},":":{"ha":333,"x_min":121,"x_max":213,"o":"m 121 0 l 121 118 l 213 118 l 213 0 l 121 0 m 121 590 l 121 708 l 213 708 l 213 590 l 121 590 z "},";":{"ha":333,"x_min":81,"x_max":213,"o":"m 97 -149 l 81 -114 q 158 -12 158 -75 l 158 0 l 121 0 l 121 118 l 213 118 l 213 15 q 186 -87 213 -50 q 97 -149 160 -125 m 121 590 l 121 708 l 213 708 l 213 590 l 121 590 z "},"<":{"ha":889,"x_min":101,"x_max":746,"o":"m 746 126 l 101 461 l 101 517 l 746 851 l 746 776 l 186 490 l 746 201 l 746 126 z "},"=":{"ha":889,"x_min":129,"x_max":760,"o":"m 129 297 l 129 368 l 760 368 l 760 297 l 129 297 m 129 610 l 129 681 l 760 681 l 760 610 l 129 610 z "},">":{"ha":889,"x_min":143,"x_max":788,"o":"m 143 126 l 143 201 l 703 488 l 143 776 l 143 851 l 788 517 l 788 461 l 143 126 z "},"?":{"ha":742,"x_min":47,"x_max":669,"o":"m 294 0 l 294 118 l 386 118 l 386 0 l 294 0 m 318 254 l 300 479 l 307 486 q 520 549 444 489 q 596 711 596 608 q 532 860 596 799 q 365 921 468 921 q 97 778 214 921 l 47 819 q 188 942 111 900 q 368 985 264 985 q 586 906 503 985 q 669 711 669 828 q 587 516 669 589 q 375 428 504 443 l 363 254 l 318 254 z "},"@":{"ha":1361,"x_min":74,"x_max":1288,"o":"m 693 -225 q 251 -48 429 -225 q 74 381 74 129 q 251 810 74 631 q 682 989 428 989 q 1111 825 935 989 q 1288 439 1288 661 q 1211 188 1288 274 q 1035 101 1135 101 q 913 136 963 101 q 846 231 864 171 q 608 101 742 101 q 434 171 506 101 q 363 349 363 240 q 463 593 363 492 q 686 694 564 694 q 893 571 828 694 l 913 675 l 979 667 l 928 374 q 915 274 915 301 q 948 183 915 214 q 1040 151 981 151 q 1181 225 1121 151 q 1240 439 1240 299 q 1169 681 1240 565 q 967 871 1097 797 q 682 944 836 944 q 282 780 443 944 q 121 381 121 615 q 283 -18 121 144 q 693 -181 444 -181 q 1040 -86 879 -181 l 1061 -121 q 693 -225 890 -225 m 619 167 q 793 249 717 167 q 869 435 869 332 q 817 572 869 517 q 686 628 765 628 q 512 548 589 628 q 435 354 435 468 q 485 217 435 267 q 619 167 536 167 z "},"A":{"ha":1097,"x_min":61,"x_max":1036,"o":"m 61 0 l 514 979 l 583 979 l 1036 0 l 957 0 l 833 272 l 260 272 l 136 0 l 61 0 m 290 338 l 803 338 l 547 900 l 290 338 z "},"B":{"ha":1003,"x_min":144,"x_max":915,"o":"m 144 0 l 144 972 l 546 972 q 775 906 689 972 q 861 731 861 840 q 696 500 861 567 q 915 265 915 443 q 820 72 915 144 q 567 0 725 0 l 144 0 m 217 67 l 569 67 q 768 121 694 67 q 842 268 842 175 q 765 408 842 358 q 546 457 689 457 l 217 457 l 217 67 m 217 524 l 538 524 q 719 576 650 524 q 788 726 788 629 q 724 857 788 808 q 544 906 660 906 l 217 906 l 217 524 z "},"C":{"ha":1025,"x_min":101,"x_max":971,"o":"m 585 -17 q 240 128 378 -17 q 101 486 101 274 q 240 842 101 694 q 588 989 379 989 q 791 949 707 989 q 961 829 875 908 l 914 781 q 586 924 767 924 q 294 798 411 924 q 176 486 176 672 q 295 175 176 301 q 588 49 414 49 q 767 86 689 49 q 922 200 844 124 l 971 153 q 796 26 886 69 q 585 -17 706 -17 z "},"D":{"ha":1086,"x_min":144,"x_max":985,"o":"m 144 0 l 144 972 l 468 972 q 840 834 696 972 q 985 486 985 696 q 840 139 985 278 q 468 0 694 0 l 144 0 m 217 67 l 468 67 q 788 186 667 67 q 910 486 910 306 q 788 785 910 664 q 468 906 667 906 l 217 906 l 217 67 z "},"E":{"ha":931,"x_min":144,"x_max":843,"o":"m 144 0 l 144 972 l 836 972 l 836 906 l 217 906 l 217 524 l 774 524 l 774 457 l 217 457 l 217 67 l 843 67 l 843 0 l 144 0 z "},"F":{"ha":911,"x_min":144,"x_max":829,"o":"m 144 0 l 144 972 l 829 972 l 829 906 l 217 906 l 217 507 l 767 507 l 767 440 l 217 440 l 217 0 l 144 0 z "},"G":{"ha":1089,"x_min":101,"x_max":972,"o":"m 590 -17 q 234 128 367 -17 q 101 486 101 272 q 236 840 101 690 q 582 989 371 989 q 777 957 694 989 q 938 861 860 925 l 890 807 q 578 924 757 924 q 290 796 404 924 q 176 486 176 668 q 289 170 176 293 q 593 47 401 47 q 763 78 681 47 q 903 158 846 110 l 903 438 l 578 438 l 578 504 l 972 504 l 972 129 q 801 24 900 65 q 590 -17 701 -17 z "},"H":{"ha":1056,"x_min":144,"x_max":911,"o":"m 144 0 l 144 972 l 217 972 l 217 522 l 839 522 l 839 972 l 911 972 l 911 0 l 839 0 l 839 456 l 217 456 l 217 0 l 144 0 z "},"I":{"ha":381,"x_min":154,"x_max":226,"o":"m 154 0 l 154 972 l 226 972 l 226 0 l 154 0 z "},"J":{"ha":763,"x_min":51,"x_max":633,"o":"m 346 -14 q 51 168 153 -14 l 111 206 q 213 89 158 126 q 350 51 268 51 q 502 119 443 51 q 561 311 561 188 l 561 972 l 633 972 l 633 317 q 544 64 633 153 q 346 -14 467 -14 z "},"K":{"ha":993,"x_min":144,"x_max":953,"o":"m 144 0 l 144 972 l 217 972 l 217 333 l 836 972 l 935 972 l 510 543 l 953 0 l 858 0 l 458 492 l 217 247 l 217 0 l 144 0 z "},"L":{"ha":860,"x_min":144,"x_max":788,"o":"m 144 0 l 144 972 l 217 972 l 217 67 l 788 67 l 788 0 l 144 0 z "},"M":{"ha":1206,"x_min":144,"x_max":1061,"o":"m 144 0 l 144 972 l 213 972 l 603 397 l 993 972 l 1061 972 l 1061 0 l 989 0 l 989 844 l 604 285 l 599 285 l 214 844 l 214 0 l 144 0 z "},"N":{"ha":1097,"x_min":144,"x_max":953,"o":"m 144 0 l 144 972 l 213 972 l 883 126 l 883 972 l 953 972 l 953 0 l 899 0 l 214 864 l 214 0 l 144 0 z "},"O":{"ha":1181,"x_min":101,"x_max":1079,"o":"m 942 132 q 873 58 942 132 q 589 -17 804 -17 q 238 131 374 -17 q 101 486 101 279 q 239 840 101 692 q 592 989 376 989 q 943 841 807 989 q 1079 486 1079 693 q 942 132 1079 281 m 295 176 q 355 113 295 176 q 592 49 414 49 q 887 175 769 49 q 1004 486 1004 301 q 885 796 1004 668 q 589 924 767 924 q 294 797 411 924 q 176 486 176 671 q 295 176 176 304 z "},"P":{"ha":928,"x_min":144,"x_max":858,"o":"m 144 0 l 144 972 l 497 972 q 759 892 660 972 q 858 672 858 813 q 749 444 858 525 q 479 363 640 363 l 217 363 l 217 0 l 144 0 m 217 429 l 483 429 q 703 495 619 429 q 786 671 786 561 q 706 844 786 783 q 492 906 626 906 l 217 906 l 217 429 z "},"Q":{"ha":1181,"x_min":101,"x_max":1090,"o":"m 1039 -29 l 903 94 q 589 -17 772 -17 q 238 131 374 -17 q 101 486 101 279 q 239 840 101 692 q 592 989 376 989 q 943 841 807 989 q 1079 486 1079 693 q 951 143 1079 286 l 1090 26 l 1039 -29 m 592 49 q 850 140 740 49 l 661 301 l 713 358 l 899 189 q 1004 486 1004 313 q 885 796 1004 668 q 589 924 767 924 q 294 797 411 924 q 176 486 176 671 q 295 176 176 304 q 592 49 414 49 z "},"R":{"ha":1004,"x_min":144,"x_max":936,"o":"m 144 0 l 144 972 l 553 972 q 826 876 731 972 q 900 693 900 803 q 822 504 900 575 q 615 415 744 433 l 936 0 l 844 0 l 535 403 l 217 403 l 217 0 l 144 0 m 217 468 l 544 468 q 749 528 669 468 q 828 693 828 589 q 754 849 828 792 q 549 906 681 906 l 217 906 l 217 468 z "},"S":{"ha":889,"x_min":82,"x_max":796,"o":"m 474 -14 q 82 142 256 -14 l 129 196 q 292 85 211 119 q 478 51 372 51 q 655 106 586 51 q 724 247 724 161 q 666 375 724 328 q 449 454 608 422 q 197 554 274 490 q 121 731 121 618 q 210 913 121 839 q 433 986 299 986 q 613 958 536 986 q 767 868 690 929 l 721 811 q 431 921 594 921 q 259 867 325 921 q 193 735 193 814 q 252 604 193 653 q 476 522 311 556 q 720 424 644 488 q 796 251 796 360 q 706 60 796 135 q 474 -14 615 -14 z "},"T":{"ha":900,"x_min":75,"x_max":825,"o":"m 414 0 l 414 906 l 75 906 l 75 972 l 825 972 l 825 906 l 486 906 l 486 0 l 414 0 z "},"U":{"ha":1056,"x_min":129,"x_max":926,"o":"m 528 -15 q 239 94 349 -15 q 129 404 129 204 l 129 972 l 201 972 l 201 411 q 289 145 201 240 q 531 50 376 50 q 768 141 682 50 q 854 404 854 232 l 854 972 l 926 972 l 926 413 q 818 97 926 208 q 528 -15 710 -15 z "},"V":{"ha":1042,"x_min":61,"x_max":981,"o":"m 489 -7 l 61 972 l 142 972 l 522 78 l 904 972 l 981 972 l 553 -7 l 489 -7 z "},"W":{"ha":1531,"x_min":69,"x_max":1461,"o":"m 422 -7 l 69 972 l 150 972 l 456 107 l 740 975 l 796 975 l 1081 107 l 1386 972 l 1461 972 l 1108 -7 l 1050 -7 l 765 838 l 481 -7 l 422 -7 z "},"X":{"ha":1003,"x_min":71,"x_max":932,"o":"m 71 0 l 458 496 l 85 972 l 171 972 l 503 544 l 833 972 l 918 972 l 546 497 l 932 0 l 846 0 l 500 449 l 156 0 l 71 0 z "},"Y":{"ha":994,"x_min":44,"x_max":950,"o":"m 461 0 l 461 385 l 44 972 l 135 972 l 499 450 l 864 972 l 950 972 l 533 386 l 533 0 l 461 0 z "},"Z":{"ha":956,"x_min":94,"x_max":863,"o":"m 94 0 l 94 40 l 760 907 l 118 907 l 118 972 l 863 972 l 863 932 l 197 65 l 863 65 l 863 0 l 94 0 z "},"[":{"ha":597,"x_min":136,"x_max":515,"o":"m 136 -181 l 136 972 l 515 972 l 515 919 l 200 919 l 200 -128 l 515 -128 l 515 -181 l 136 -181 z "},"\\":{"ha":694,"x_min":-4,"x_max":719,"o":"m 651 -178 l -4 1108 l 64 1108 l 719 -178 l 651 -178 z "},"]":{"ha":597,"x_min":82,"x_max":461,"o":"m 82 -181 l 82 -128 l 397 -128 l 397 919 l 82 919 l 82 972 l 461 972 l 461 -181 l 82 -181 z "},"^":{"ha":694,"x_min":97,"x_max":597,"o":"m 97 685 l 317 976 l 378 976 l 597 685 l 524 685 l 346 917 l 168 685 l 97 685 z "},"_":{"ha":833,"x_min":-3,"x_max":836,"o":"m -3 -222 l -3 -161 l 836 -161 l 836 -222 l -3 -222 z "},"`":{"ha":694,"x_min":218,"x_max":425,"o":"m 367 826 l 218 969 l 303 1011 l 425 826 l 367 826 z "},"a":{"ha":797,"x_min":71,"x_max":682,"o":"m 344 -17 q 153 43 236 -17 q 71 208 71 103 q 156 378 71 317 q 381 439 240 439 q 615 408 500 439 l 615 439 q 554 600 615 544 q 382 656 493 656 q 160 599 271 656 l 135 658 q 386 719 267 719 q 610 642 532 719 q 682 442 682 569 l 682 0 l 615 0 l 615 118 q 344 -17 519 -17 m 349 47 q 538 109 460 47 q 617 265 617 171 l 617 346 q 376 378 492 378 q 204 333 265 378 q 143 210 143 288 q 203 92 143 136 q 349 47 264 47 z "},"b":{"ha":917,"x_min":129,"x_max":833,"o":"m 489 -17 q 197 153 308 -17 l 197 0 l 129 0 l 129 1014 l 197 1014 l 197 550 q 489 725 313 725 q 729 623 625 725 q 833 354 833 521 q 729 86 833 189 q 489 -17 625 -17 m 482 49 q 681 131 601 49 q 760 354 760 214 q 678 575 760 490 q 482 660 597 660 q 280 573 367 660 q 193 353 193 486 q 280 135 193 221 q 482 49 367 49 z "},"c":{"ha":793,"x_min":81,"x_max":731,"o":"m 442 -17 q 185 92 289 -17 q 81 354 81 200 q 185 616 81 507 q 442 725 290 725 q 724 593 607 725 l 676 544 q 440 661 563 661 q 238 571 322 661 q 154 354 154 481 q 239 137 154 226 q 446 47 324 47 q 681 168 572 47 l 731 124 q 442 -17 607 -17 z "},"d":{"ha":917,"x_min":83,"x_max":788,"o":"m 428 -17 q 188 85 292 -17 q 83 354 83 188 q 188 622 83 519 q 428 725 292 725 q 719 556 608 725 l 719 1014 l 788 1014 l 788 0 l 719 0 l 719 158 q 428 -17 604 -17 m 238 133 q 279 91 238 133 q 435 49 319 49 q 637 135 550 49 q 724 356 724 222 q 637 574 724 488 q 435 660 550 660 q 236 577 315 660 q 157 354 157 494 q 238 133 157 218 z "},"e":{"ha":811,"x_min":81,"x_max":742,"o":"m 428 -17 q 183 88 285 -17 q 81 356 81 192 q 177 618 81 511 q 417 725 274 725 q 652 619 563 725 q 742 354 742 514 q 740 326 742 338 l 153 326 q 242 123 163 199 q 431 47 322 47 q 674 158 569 47 l 721 117 q 428 -17 597 -17 m 153 388 l 668 388 q 594 583 660 504 q 414 663 529 663 q 236 584 310 663 q 153 388 163 506 z "},"f":{"ha":503,"x_min":68,"x_max":488,"o":"m 171 0 l 171 646 l 68 646 l 68 708 l 171 708 l 171 778 q 233 963 171 900 q 382 1018 289 1018 q 488 1001 439 1018 l 488 938 q 382 956 429 956 q 239 776 239 956 l 239 708 l 486 708 l 486 646 l 239 646 l 239 0 l 171 0 z "},"g":{"ha":917,"x_min":83,"x_max":788,"o":"m 440 -225 q 115 -117 261 -225 l 156 -61 q 442 -161 285 -161 q 644 -90 568 -161 q 719 114 719 -19 l 719 217 q 424 53 606 53 q 186 147 289 53 q 83 389 83 240 q 186 631 83 536 q 424 725 289 725 q 719 567 608 725 l 719 708 l 788 708 l 788 110 q 697 -131 788 -40 q 440 -225 603 -225 m 431 118 q 635 195 546 118 q 724 390 724 272 q 635 584 724 508 q 431 660 547 660 q 236 585 315 660 q 157 389 157 511 q 238 195 157 272 q 431 118 318 118 z "},"h":{"ha":851,"x_min":129,"x_max":736,"o":"m 129 0 l 129 1014 l 197 1014 l 197 576 q 453 725 282 725 q 660 644 585 725 q 736 433 736 563 l 736 0 l 668 0 l 668 421 q 608 597 668 532 q 443 663 549 663 q 267 591 338 663 q 197 410 197 519 l 197 0 l 129 0 z "},"i":{"ha":346,"x_min":131,"x_max":215,"o":"m 139 0 l 139 708 l 207 708 l 207 0 l 139 0 m 131 893 l 131 986 l 215 986 l 215 893 l 131 893 z "},"j":{"ha":346,"x_min":-1,"x_max":215,"o":"m 56 -226 q -1 -221 26 -226 l -1 -161 q 54 -165 24 -165 q 116 -140 93 -165 q 139 -67 139 -115 l 139 708 l 207 708 l 207 -62 q 167 -185 207 -143 q 56 -226 126 -226 m 131 893 l 131 986 l 215 986 l 215 893 l 131 893 z "},"k":{"ha":778,"x_min":129,"x_max":736,"o":"m 129 0 l 129 1014 l 197 1014 l 197 254 l 636 708 l 726 708 l 417 394 l 736 0 l 650 0 l 369 346 l 197 172 l 197 0 l 129 0 z "},"l":{"ha":346,"x_min":139,"x_max":207,"o":"m 139 0 l 139 1014 l 207 1014 l 207 0 l 139 0 z "},"m":{"ha":1321,"x_min":129,"x_max":1200,"o":"m 129 0 l 129 708 l 197 708 l 197 582 q 293 687 239 649 q 433 725 347 725 q 672 572 600 725 q 928 725 761 725 q 1126 644 1053 725 q 1200 429 1200 564 l 1200 0 l 1132 0 l 1132 421 q 1076 599 1132 535 q 922 663 1021 663 q 764 594 829 663 q 699 413 699 526 l 699 0 l 631 0 l 631 425 q 574 599 631 535 q 424 663 518 663 q 263 589 329 663 q 197 408 197 515 l 197 0 l 129 0 z "},"n":{"ha":851,"x_min":129,"x_max":736,"o":"m 129 0 l 129 708 l 197 708 l 197 576 q 453 725 282 725 q 660 644 585 725 q 736 433 736 563 l 736 0 l 668 0 l 668 421 q 608 597 668 532 q 443 663 549 663 q 267 591 338 663 q 197 410 197 519 l 197 0 l 129 0 z "},"o":{"ha":889,"x_min":81,"x_max":808,"o":"m 703 93 q 651 38 703 93 q 443 -17 599 -17 q 184 92 288 -17 q 81 354 81 201 q 185 615 81 506 q 446 725 290 725 q 705 616 601 725 q 808 354 808 507 q 703 93 808 203 m 446 47 q 649 138 564 47 q 735 354 735 228 q 649 572 735 482 q 443 661 564 661 q 239 572 324 661 q 154 354 154 482 q 239 137 154 226 q 446 47 324 47 z "},"p":{"ha":917,"x_min":129,"x_max":833,"o":"m 129 -222 l 129 708 l 197 708 l 197 550 q 489 725 313 725 q 729 623 625 725 q 833 354 833 521 q 729 86 833 189 q 489 -17 625 -17 q 197 153 308 -17 l 197 -222 l 129 -222 m 482 49 q 681 131 601 49 q 760 354 760 214 q 678 575 760 490 q 482 660 597 660 q 280 573 367 660 q 193 353 193 486 q 280 135 193 221 q 482 49 367 49 z "},"q":{"ha":917,"x_min":83,"x_max":788,"o":"m 719 -222 l 719 158 q 428 -17 604 -17 q 188 85 292 -17 q 83 354 83 188 q 188 622 83 519 q 428 725 292 725 q 719 556 608 725 l 719 708 l 788 708 l 788 -222 l 719 -222 m 238 133 q 279 91 238 133 q 435 49 319 49 q 637 135 550 49 q 724 356 724 222 q 637 574 724 488 q 435 660 550 660 q 236 577 315 660 q 157 354 157 494 q 238 133 157 218 z "},"r":{"ha":556,"x_min":129,"x_max":511,"o":"m 129 0 l 129 708 l 197 708 l 197 507 q 324 664 240 604 q 511 719 408 724 l 511 644 l 504 644 q 286 550 375 644 q 197 290 197 456 l 197 0 l 129 0 z "},"s":{"ha":690,"x_min":68,"x_max":603,"o":"m 358 -14 q 203 15 282 -14 q 68 89 125 43 l 108 143 q 363 50 229 50 q 485 88 436 50 q 533 188 533 125 q 485 274 533 244 q 346 329 438 303 q 275 350 297 343 q 213 375 253 357 q 153 411 172 393 q 119 459 135 429 q 103 526 103 489 q 168 667 103 613 q 336 722 233 722 q 588 644 471 722 l 551 588 q 333 658 444 658 q 217 623 261 658 q 172 532 172 588 q 184 490 172 510 q 212 458 196 471 q 258 433 228 446 q 309 413 288 419 q 369 394 331 406 q 456 367 422 379 q 527 331 489 354 q 584 273 565 307 q 603 193 603 239 q 533 43 603 100 q 358 -14 463 -14 z "},"t":{"ha":556,"x_min":64,"x_max":483,"o":"m 365 -12 q 222 37 278 -12 q 167 182 167 86 l 167 646 l 64 646 l 64 708 l 167 708 l 167 935 l 235 935 l 235 708 l 483 708 l 483 646 l 235 646 l 235 189 q 376 51 235 51 q 481 76 425 51 l 481 13 q 365 -12 426 -12 z "},"u":{"ha":851,"x_min":115,"x_max":722,"o":"m 399 -17 q 191 65 267 -17 q 115 275 115 146 l 115 708 l 183 708 l 183 288 q 243 111 183 176 q 408 46 303 46 q 584 117 514 46 q 654 299 654 189 l 654 708 l 722 708 l 722 0 l 654 0 l 654 132 q 399 -17 569 -17 z "},"v":{"ha":808,"x_min":57,"x_max":751,"o":"m 375 -6 l 57 708 l 136 708 l 404 76 l 675 708 l 751 708 l 433 -6 l 375 -6 z "},"w":{"ha":1196,"x_min":68,"x_max":1128,"o":"m 328 -6 l 68 708 l 144 708 l 358 86 l 572 711 l 626 711 l 840 86 l 1054 708 l 1128 708 l 868 -6 l 810 -6 l 599 601 l 386 -6 l 328 -6 z "},"x":{"ha":792,"x_min":63,"x_max":729,"o":"m 63 0 l 353 361 l 74 708 l 158 708 l 397 408 l 636 708 l 718 708 l 439 363 l 729 0 l 644 0 l 394 315 l 144 0 l 63 0 z "},"y":{"ha":817,"x_min":54,"x_max":758,"o":"m 215 -226 q 75 -196 144 -226 l 99 -136 q 219 -162 153 -162 q 315 -125 275 -162 q 394 4 356 -87 l 54 708 l 133 708 l 428 75 l 683 708 l 758 708 l 451 -25 q 349 -180 406 -133 q 215 -226 293 -226 z "},"z":{"ha":769,"x_min":81,"x_max":693,"o":"m 81 0 l 81 39 l 592 647 l 100 647 l 100 708 l 693 708 l 693 669 l 182 61 l 693 61 l 693 0 l 81 0 z "},"{":{"ha":667,"x_min":82,"x_max":588,"o":"m 578 -196 q 427 -153 486 -179 q 338 -91 368 -128 q 296 -13 307 -54 q 285 86 285 28 l 285 196 q 248 328 285 283 q 118 372 211 372 l 82 372 l 82 425 l 118 425 q 248 469 211 425 q 285 601 285 514 l 285 711 q 296 810 285 769 q 338 888 307 851 q 427 951 368 925 q 578 993 486 976 l 588 949 q 461 908 507 928 q 391 857 415 888 q 360 794 367 826 q 353 703 353 761 l 353 599 q 316 465 353 511 q 208 399 279 419 q 318 330 283 374 q 353 199 353 286 l 353 94 q 360 3 353 36 q 391 -60 367 -29 q 461 -110 415 -90 q 588 -151 507 -131 l 578 -196 z "},"|":{"ha":397,"x_min":168,"x_max":229,"o":"m 168 -178 l 168 1108 l 229 1108 l 229 -178 l 168 -178 z "},"}":{"ha":667,"x_min":79,"x_max":585,"o":"m 89 -196 l 79 -151 q 206 -110 160 -131 q 276 -60 251 -90 q 307 3 300 -29 q 314 94 314 36 l 314 199 q 351 332 314 286 q 458 399 388 378 q 349 467 383 424 q 314 599 314 511 l 314 703 q 307 794 314 761 q 276 857 300 826 q 206 908 251 888 q 79 949 160 928 l 89 993 q 240 951 181 976 q 329 888 299 925 q 371 810 360 851 q 382 711 382 769 l 382 601 q 419 469 382 514 q 549 425 456 425 l 585 425 l 585 372 l 549 372 q 419 328 456 372 q 382 196 382 283 l 382 86 q 371 -13 382 28 q 329 -91 360 -54 q 240 -153 299 -128 q 89 -196 181 -179 z "},"~":{"ha":639,"x_min":114,"x_max":525,"o":"m 161 336 l 114 349 q 160 449 133 421 q 231 478 188 478 q 322 449 258 478 q 408 421 386 421 q 448 435 433 421 q 478 490 463 450 l 525 478 q 478 377 506 406 q 408 349 451 349 q 317 377 381 349 q 231 406 253 406 q 191 391 206 406 q 161 336 176 376 z "}," ":{"ha":417,"x_min":0,"x_max":0,"o":""},"¡":{"ha":350,"x_min":129,"x_max":221,"o":"m 135 0 l 135 97 l 156 718 l 194 718 l 215 97 l 215 0 l 135 0 m 129 854 l 129 972 l 221 972 l 221 854 l 129 854 z "},"¢":{"ha":807,"x_min":86,"x_max":736,"o":"m 297 -8 l 328 143 q 153 277 219 181 q 86 493 86 374 q 192 753 86 643 q 447 864 297 864 l 468 864 l 490 981 l 560 981 l 535 854 q 731 733 638 829 l 682 683 q 518 790 597 771 l 403 190 q 451 186 425 186 q 689 304 583 186 l 736 263 q 447 122 613 122 q 393 126 419 122 l 367 -8 l 297 -8 m 344 207 l 458 800 l 446 800 q 242 711 325 800 q 160 493 160 622 q 211 318 160 396 q 344 207 263 240 z "},"£":{"ha":894,"x_min":97,"x_max":807,"o":"m 97 0 l 97 35 l 217 63 l 217 424 l 97 424 l 97 490 l 217 490 l 217 654 q 307 906 217 815 q 515 986 388 986 q 807 839 694 986 l 751 796 q 649 889 703 857 q 514 921 594 921 q 357 861 417 921 q 288 656 288 792 l 288 490 l 701 490 l 701 424 l 288 424 l 288 65 l 807 65 l 807 0 l 97 0 z "},"¤":{"ha":1000,"x_min":82,"x_max":921,"o":"m 594 -17 q 348 81 453 -17 q 207 340 243 179 l 82 340 l 82 407 l 197 407 q 193 486 193 444 q 200 578 193 533 l 82 578 l 82 644 l 213 644 q 352 893 251 797 q 585 989 453 989 q 918 794 789 989 l 863 757 q 740 885 803 844 q 582 925 676 925 q 399 847 479 925 q 283 644 318 769 l 678 644 l 678 578 l 271 578 q 264 486 264 536 q 268 407 264 447 l 678 407 l 678 340 l 281 340 q 399 128 314 208 q 599 47 483 47 q 868 225 753 47 l 921 190 q 594 -17 786 -17 z "},"¥":{"ha":953,"x_min":44,"x_max":908,"o":"m 442 0 l 442 174 l 146 174 l 146 236 l 442 236 l 442 372 l 146 372 l 146 435 l 417 435 l 44 972 l 132 972 l 478 454 l 825 972 l 908 972 l 535 435 l 807 435 l 807 372 l 511 372 l 511 236 l 807 236 l 807 174 l 511 174 l 511 0 l 442 0 z "},"¦":{"ha":308,"x_min":117,"x_max":192,"o":"m 192 571 l 117 571 l 117 918 l 192 918 l 192 571 m 192 -124 l 117 -124 l 117 224 l 192 224 l 192 -124 z "},"§":{"ha":878,"x_min":90,"x_max":788,"o":"m 457 -14 q 284 22 367 -14 q 142 118 201 58 l 194 168 q 464 54 306 54 q 584 85 543 54 q 625 164 625 115 q 568 244 625 210 q 371 311 511 278 q 153 393 217 349 q 90 507 90 438 q 146 610 90 568 q 296 664 201 653 q 176 813 176 717 q 244 938 176 890 q 421 986 311 986 q 594 950 511 986 q 736 854 676 914 l 683 804 q 414 918 572 918 q 294 888 335 918 q 253 808 253 857 q 310 728 253 763 q 507 661 367 694 q 724 579 661 624 q 788 465 788 535 q 732 362 788 404 q 582 308 676 319 q 701 160 701 256 q 634 34 701 82 q 457 -14 567 -14 m 536 351 q 665 384 615 351 q 715 463 715 417 q 667 535 715 503 q 497 599 619 568 q 342 621 408 621 q 213 588 263 621 q 163 510 163 556 q 210 437 163 469 q 381 374 258 404 q 536 351 468 351 z "},"¨":{"ha":694,"x_min":186,"x_max":508,"o":"m 186 826 l 186 938 l 282 938 l 282 826 l 186 826 m 413 826 l 413 938 l 508 938 l 508 826 l 413 826 z "},"©":{"ha":1153,"x_min":74,"x_max":1079,"o":"m 932 131 q 858 57 932 131 q 575 -17 785 -17 q 219 131 365 -17 q 74 486 74 278 q 221 841 74 693 q 578 989 368 989 q 933 842 788 989 q 1079 486 1079 694 q 932 131 1079 279 m 247 157 q 313 90 247 157 q 575 22 379 22 q 904 158 771 22 q 1038 489 1038 294 q 906 815 1038 681 q 578 950 774 950 q 249 814 382 950 q 115 483 115 678 q 247 157 115 292 m 582 231 q 402 308 475 231 q 329 494 329 385 q 403 679 329 601 q 583 757 476 757 q 779 672 690 757 l 738 629 q 582 701 663 701 q 445 641 500 701 q 390 493 390 581 q 447 347 390 408 q 583 286 503 286 q 743 358 667 286 l 782 319 q 582 231 690 231 z "},"ª":{"ha":542,"x_min":86,"x_max":436,"o":"m 86 407 l 86 463 l 436 463 l 436 407 l 86 407 m 242 571 q 135 605 181 571 q 90 699 90 639 q 138 793 90 758 q 263 828 185 828 q 378 813 319 828 l 378 819 q 347 899 378 872 q 263 926 317 926 q 140 893 211 926 l 122 940 q 265 976 199 976 q 390 932 346 976 q 429 821 429 893 l 429 579 l 378 579 l 378 636 q 242 571 328 571 m 244 621 q 338 651 299 621 q 378 728 378 681 l 378 765 q 260 781 328 781 q 181 760 217 781 q 146 699 146 740 q 174 642 146 663 q 244 621 203 621 z "},"«":{"ha":715,"x_min":71,"x_max":628,"o":"m 293 58 l 71 349 l 71 360 l 293 650 l 344 617 l 154 356 l 344 92 l 293 58 m 576 58 l 354 349 l 354 360 l 576 650 l 628 617 l 438 356 l 628 92 l 576 58 z "},"¬":{"ha":889,"x_min":129,"x_max":760,"o":"m 760 360 l 690 360 l 690 610 l 129 610 l 129 681 l 760 681 l 760 360 z "},"­":{"ha":567,"x_min":97,"x_max":469,"o":"m 97 374 l 97 451 l 469 451 l 469 374 l 97 374 z "},"®":{"ha":1153,"x_min":74,"x_max":1079,"o":"m 932 131 q 858 57 932 131 q 575 -17 785 -17 q 219 131 365 -17 q 74 486 74 278 q 221 841 74 693 q 578 989 368 989 q 933 842 788 989 q 1079 486 1079 694 q 932 131 1079 279 m 247 157 q 313 90 247 157 q 575 22 379 22 q 904 158 771 22 q 1038 489 1038 294 q 906 815 1038 681 q 578 950 774 950 q 249 814 382 950 q 115 483 115 678 q 247 157 115 292 m 383 246 l 383 754 l 611 754 q 760 703 708 754 q 799 606 799 664 q 761 509 799 546 q 660 460 724 472 l 829 246 l 751 246 l 588 450 l 443 450 l 443 246 l 383 246 m 443 506 l 601 506 q 699 531 661 506 q 736 606 736 557 q 702 672 736 647 q 608 697 668 697 l 443 697 l 443 506 z "},"¯":{"ha":694,"x_min":139,"x_max":556,"o":"m 139 833 l 139 907 l 556 907 l 556 833 l 139 833 z "},"°":{"ha":625,"x_min":103,"x_max":522,"o":"m 459 633 q 427 603 459 633 q 313 572 396 572 q 166 633 229 572 q 103 778 103 694 q 166 919 103 858 q 313 981 229 981 q 459 919 396 981 q 522 775 522 858 q 459 633 522 694 m 213 676 q 233 655 213 676 q 313 633 253 633 q 413 676 372 633 q 453 778 453 719 q 413 877 453 835 q 313 919 372 919 q 213 876 253 919 q 172 775 172 833 q 213 676 172 718 z "},"±":{"ha":889,"x_min":100,"x_max":790,"o":"m 790 408 l 482 408 l 482 161 l 408 161 l 408 408 l 100 408 l 100 475 l 408 475 l 408 721 l 482 721 l 482 475 l 790 475 l 790 408 m 790 31 l 100 31 l 100 97 l 790 97 l 790 31 z "},"²":{"ha":694,"x_min":0,"x_max":694,"o":"m 0 0 l 0 972 l 694 972 l 694 0 l 0 0 m 113 68 l 583 68 l 347 422 l 113 68 m 68 133 l 306 486 l 68 839 l 68 133 m 625 133 l 625 839 l 388 486 l 625 133 m 347 549 l 583 903 l 113 903 l 347 549 z "},"³":{"ha":694,"x_min":0,"x_max":694,"o":"m 0 0 l 0 972 l 694 972 l 694 0 l 0 0 m 113 68 l 583 68 l 347 422 l 113 68 m 68 133 l 306 486 l 68 839 l 68 133 m 625 133 l 625 839 l 388 486 l 625 133 m 347 549 l 583 903 l 113 903 l 347 549 z "},"´":{"ha":694,"x_min":269,"x_max":476,"o":"m 269 826 l 392 1011 l 476 969 l 328 826 l 269 826 z "},"µ":{"ha":865,"x_min":129,"x_max":736,"o":"m 413 -17 q 197 101 275 -17 l 197 -222 l 129 -222 l 129 708 l 197 708 l 197 288 q 257 111 197 176 q 422 46 317 46 q 598 117 528 46 q 668 299 668 189 l 668 708 l 736 708 l 736 0 l 668 0 l 668 132 q 413 -17 583 -17 z "},"μ":{"ha":865,"x_min":129,"x_max":736,"o":"m 413 -17 q 197 101 275 -17 l 197 -222 l 129 -222 l 129 708 l 197 708 l 197 288 q 257 111 197 176 q 422 46 317 46 q 598 117 528 46 q 668 299 668 189 l 668 708 l 736 708 l 736 0 l 668 0 l 668 132 q 413 -17 583 -17 z "},"¶":{"ha":667,"x_min":74,"x_max":536,"o":"m 463 0 l 463 385 l 454 385 q 181 463 288 385 q 74 681 74 542 q 174 894 74 815 q 433 972 274 972 l 536 972 l 536 0 l 463 0 z "},"·":{"ha":319,"x_min":114,"x_max":206,"o":"m 114 354 l 114 472 l 206 472 l 206 354 l 114 354 z "},"¸":{"ha":694,"x_min":225,"x_max":410,"o":"m 301 -206 l 225 -169 l 350 14 l 410 14 l 301 -206 z "},"¹":{"ha":694,"x_min":0,"x_max":694,"o":"m 0 0 l 0 972 l 694 972 l 694 0 l 0 0 m 113 68 l 583 68 l 347 422 l 113 68 m 68 133 l 306 486 l 68 839 l 68 133 m 625 133 l 625 839 l 388 486 l 625 133 m 347 549 l 583 903 l 113 903 l 347 549 z "},"º":{"ha":542,"x_min":71,"x_max":471,"o":"m 71 407 l 71 463 l 471 463 l 471 407 l 71 407 m 269 571 q 128 631 185 571 q 71 775 71 690 q 128 919 71 858 q 272 979 186 979 q 414 919 357 979 q 471 775 471 860 q 413 631 471 692 q 269 571 356 571 m 272 625 q 372 668 333 625 q 411 775 411 711 q 370 881 411 838 q 269 925 329 925 q 169 882 208 925 q 131 775 131 839 q 172 669 131 713 q 272 625 213 625 z "},"»":{"ha":715,"x_min":88,"x_max":644,"o":"m 139 58 l 88 92 l 278 353 l 88 617 l 139 650 l 361 360 l 361 349 l 139 58 m 422 58 l 371 92 l 561 353 l 371 617 l 422 650 l 644 360 l 644 349 l 422 58 z "},"¼":{"ha":694,"x_min":0,"x_max":694,"o":"m 0 0 l 0 972 l 694 972 l 694 0 l 0 0 m 113 68 l 583 68 l 347 422 l 113 68 m 68 133 l 306 486 l 68 839 l 68 133 m 625 133 l 625 839 l 388 486 l 625 133 m 347 549 l 583 903 l 113 903 l 347 549 z "},"½":{"ha":694,"x_min":0,"x_max":694,"o":"m 0 0 l 0 972 l 694 972 l 694 0 l 0 0 m 113 68 l 583 68 l 347 422 l 113 68 m 68 133 l 306 486 l 68 839 l 68 133 m 625 133 l 625 839 l 388 486 l 625 133 m 347 549 l 583 903 l 113 903 l 347 549 z "},"¾":{"ha":694,"x_min":0,"x_max":694,"o":"m 0 0 l 0 972 l 694 972 l 694 0 l 0 0 m 113 68 l 583 68 l 347 422 l 113 68 m 68 133 l 306 486 l 68 839 l 68 133 m 625 133 l 625 839 l 388 486 l 625 133 m 347 549 l 583 903 l 113 903 l 347 549 z "},"¿":{"ha":742,"x_min":72,"x_max":694,"o":"m 374 -12 q 156 66 239 -12 q 72 261 72 144 q 155 456 72 383 q 367 544 238 529 l 379 718 l 424 718 l 442 493 l 435 486 q 222 424 297 483 q 146 261 146 364 q 210 113 146 174 q 376 51 274 51 q 644 194 528 51 l 694 153 q 554 30 631 72 q 374 -12 478 -12 m 356 854 l 356 972 l 447 972 l 447 854 l 356 854 z "},"À":{"ha":1097,"x_min":61,"x_max":1036,"o":"m 61 0 l 514 979 l 583 979 l 1036 0 l 957 0 l 833 272 l 260 272 l 136 0 l 61 0 m 290 338 l 803 338 l 547 900 l 290 338 m 514 1063 l 365 1206 l 450 1247 l 572 1063 l 514 1063 z "},"Á":{"ha":1097,"x_min":61,"x_max":1036,"o":"m 61 0 l 514 979 l 583 979 l 1036 0 l 957 0 l 833 272 l 260 272 l 136 0 l 61 0 m 290 338 l 803 338 l 547 900 l 290 338 m 525 1063 l 647 1247 l 732 1206 l 583 1063 l 525 1063 z "},"Â":{"ha":1097,"x_min":61,"x_max":1036,"o":"m 61 0 l 514 979 l 583 979 l 1036 0 l 957 0 l 833 272 l 260 272 l 136 0 l 61 0 m 290 338 l 803 338 l 547 900 l 290 338 m 382 1056 l 521 1225 l 576 1225 l 715 1056 l 650 1056 l 547 1150 l 444 1056 l 382 1056 z "},"Ã":{"ha":1097,"x_min":61,"x_max":1036,"o":"m 61 0 l 514 979 l 583 979 l 1036 0 l 957 0 l 833 272 l 260 272 l 136 0 l 61 0 m 290 338 l 803 338 l 547 900 l 290 338 m 390 1050 l 343 1063 q 390 1163 363 1135 q 460 1192 417 1192 q 550 1163 486 1192 q 638 1135 614 1135 q 677 1149 663 1135 q 707 1204 692 1164 l 754 1192 q 708 1091 735 1119 q 638 1063 681 1063 q 547 1091 611 1063 q 460 1119 483 1119 q 420 1105 435 1119 q 390 1050 406 1090 z "},"Ä":{"ha":1097,"x_min":61,"x_max":1036,"o":"m 61 0 l 514 979 l 583 979 l 1036 0 l 957 0 l 833 272 l 260 272 l 136 0 l 61 0 m 290 338 l 803 338 l 547 900 l 290 338 m 388 1063 l 388 1174 l 483 1174 l 483 1063 l 388 1063 m 614 1063 l 614 1174 l 710 1174 l 710 1063 l 614 1063 z "},"Å":{"ha":1097,"x_min":61,"x_max":1036,"o":"m 61 0 l 496 940 q 436 990 460 957 q 413 1063 413 1022 q 453 1153 413 1115 q 549 1192 494 1192 q 644 1153 603 1192 q 685 1060 685 1114 q 661 989 685 1021 q 601 942 638 957 l 1036 0 l 957 0 l 833 272 l 260 272 l 136 0 l 61 0 m 290 338 l 803 338 l 547 900 l 290 338 m 488 1000 q 501 988 488 1000 q 549 975 514 975 q 609 1001 583 975 q 635 1063 635 1026 q 609 1122 635 1097 q 549 1147 583 1147 q 488 1122 513 1147 q 463 1060 463 1096 q 488 1000 463 1025 z "},"Æ":{"ha":1451,"x_min":28,"x_max":1364,"o":"m 28 0 l 617 972 l 1357 972 l 1357 906 l 758 906 l 758 524 l 1294 524 l 1294 457 l 758 457 l 758 67 l 1364 67 l 1364 0 l 686 0 l 686 272 l 269 272 l 106 0 l 28 0 m 308 338 l 686 338 l 686 907 l 650 907 l 308 338 z "},"Ç":{"ha":1025,"x_min":101,"x_max":971,"o":"m 510 -206 l 433 -169 l 539 -15 q 225 144 349 3 q 101 486 101 286 q 240 842 101 694 q 588 989 379 989 q 795 949 708 989 q 965 833 882 910 l 914 781 q 586 924 767 924 q 294 798 411 924 q 176 486 176 672 q 295 175 176 301 q 588 49 414 49 q 767 86 689 49 q 922 200 844 124 l 971 153 q 803 31 890 74 q 603 -17 717 -12 l 510 -206 z "},"È":{"ha":931,"x_min":144,"x_max":843,"o":"m 144 0 l 144 972 l 836 972 l 836 906 l 217 906 l 217 524 l 774 524 l 774 457 l 217 457 l 217 67 l 843 67 l 843 0 l 144 0 m 485 1063 l 336 1206 l 421 1247 l 543 1063 l 485 1063 z "},"É":{"ha":931,"x_min":144,"x_max":843,"o":"m 144 0 l 144 972 l 836 972 l 836 906 l 217 906 l 217 524 l 774 524 l 774 457 l 217 457 l 217 67 l 843 67 l 843 0 l 144 0 m 429 1063 l 551 1247 l 636 1206 l 488 1063 l 429 1063 z "},"Ê":{"ha":931,"x_min":144,"x_max":843,"o":"m 144 0 l 144 972 l 836 972 l 836 906 l 217 906 l 217 524 l 774 524 l 774 457 l 217 457 l 217 67 l 843 67 l 843 0 l 144 0 m 318 1063 l 457 1232 l 513 1232 l 651 1063 l 586 1063 l 483 1157 l 381 1063 l 318 1063 z "},"Ë":{"ha":931,"x_min":144,"x_max":843,"o":"m 144 0 l 144 972 l 836 972 l 836 906 l 217 906 l 217 524 l 774 524 l 774 457 l 217 457 l 217 67 l 843 67 l 843 0 l 144 0 m 324 1063 l 324 1174 l 419 1174 l 419 1063 l 324 1063 m 550 1063 l 550 1174 l 646 1174 l 646 1063 l 550 1063 z "},"Ì":{"ha":381,"x_min":10,"x_max":226,"o":"m 154 0 l 154 972 l 226 972 l 226 0 l 154 0 m 158 1063 l 10 1206 l 94 1247 l 217 1063 l 158 1063 z "},"Í":{"ha":381,"x_min":154,"x_max":371,"o":"m 154 0 l 154 972 l 226 972 l 226 0 l 154 0 m 164 1063 l 286 1247 l 371 1206 l 222 1063 l 164 1063 z "},"Î":{"ha":381,"x_min":25,"x_max":358,"o":"m 154 0 l 154 972 l 226 972 l 226 0 l 154 0 m 25 1063 l 164 1232 l 219 1232 l 358 1063 l 293 1063 l 190 1157 l 88 1063 l 25 1063 z "},"Ï":{"ha":381,"x_min":31,"x_max":353,"o":"m 154 0 l 154 972 l 226 972 l 226 0 l 154 0 m 31 1063 l 31 1174 l 126 1174 l 126 1063 l 31 1063 m 257 1063 l 257 1174 l 353 1174 l 353 1063 l 257 1063 z "},"Ð":{"ha":1128,"x_min":82,"x_max":1026,"o":"m 186 0 l 186 456 l 82 456 l 82 522 l 186 522 l 186 972 l 510 972 q 882 834 738 972 q 1026 486 1026 696 q 881 139 1026 278 q 510 0 736 0 l 186 0 m 258 67 l 510 67 q 830 186 708 67 q 951 486 951 306 q 830 785 951 664 q 510 906 708 906 l 258 906 l 258 522 l 581 522 l 581 456 l 258 456 l 258 67 z "},"Ñ":{"ha":1097,"x_min":144,"x_max":953,"o":"m 144 0 l 144 972 l 213 972 l 883 126 l 883 972 l 953 972 l 953 0 l 899 0 l 214 864 l 214 0 l 144 0 m 390 1050 l 343 1063 q 390 1163 363 1135 q 460 1192 417 1192 q 550 1163 486 1192 q 638 1135 614 1135 q 677 1149 663 1135 q 707 1204 692 1164 l 754 1192 q 708 1091 735 1119 q 638 1063 681 1063 q 547 1091 611 1063 q 460 1119 483 1119 q 420 1105 435 1119 q 390 1050 406 1090 z "},"Ò":{"ha":1181,"x_min":101,"x_max":1079,"o":"m 942 132 q 873 58 942 132 q 589 -17 804 -17 q 238 131 374 -17 q 101 486 101 279 q 239 840 101 692 q 592 989 376 989 q 943 841 807 989 q 1079 486 1079 693 q 942 132 1079 281 m 295 176 q 355 113 295 176 q 592 49 414 49 q 887 175 769 49 q 1004 486 1004 301 q 885 796 1004 668 q 589 924 767 924 q 294 797 411 924 q 176 486 176 671 q 295 176 176 304 m 554 1063 l 406 1206 l 490 1247 l 613 1063 l 554 1063 z "},"Ó":{"ha":1181,"x_min":101,"x_max":1079,"o":"m 942 132 q 873 58 942 132 q 589 -17 804 -17 q 238 131 374 -17 q 101 486 101 279 q 239 840 101 692 q 592 989 376 989 q 943 841 807 989 q 1079 486 1079 693 q 942 132 1079 281 m 295 176 q 355 113 295 176 q 592 49 414 49 q 887 175 769 49 q 1004 486 1004 301 q 885 796 1004 668 q 589 924 767 924 q 294 797 411 924 q 176 486 176 671 q 295 176 176 304 m 568 1063 l 690 1247 l 775 1206 l 626 1063 l 568 1063 z "},"Ô":{"ha":1181,"x_min":101,"x_max":1079,"o":"m 942 132 q 873 58 942 132 q 589 -17 804 -17 q 238 131 374 -17 q 101 486 101 279 q 239 840 101 692 q 592 989 376 989 q 943 841 807 989 q 1079 486 1079 693 q 942 132 1079 281 m 295 176 q 355 113 295 176 q 592 49 414 49 q 887 175 769 49 q 1004 486 1004 301 q 885 796 1004 668 q 589 924 767 924 q 294 797 411 924 q 176 486 176 671 q 295 176 176 304 m 424 1063 l 563 1232 l 618 1232 l 757 1063 l 692 1063 l 589 1157 l 486 1063 l 424 1063 z "},"Õ":{"ha":1181,"x_min":101,"x_max":1079,"o":"m 942 132 q 873 58 942 132 q 589 -17 804 -17 q 238 131 374 -17 q 101 486 101 279 q 239 840 101 692 q 592 989 376 989 q 943 841 807 989 q 1079 486 1079 693 q 942 132 1079 281 m 295 176 q 355 113 295 176 q 592 49 414 49 q 887 175 769 49 q 1004 486 1004 301 q 885 796 1004 668 q 589 924 767 924 q 294 797 411 924 q 176 486 176 671 q 295 176 176 304 m 432 1050 l 385 1063 q 431 1163 404 1135 q 501 1192 458 1192 q 592 1163 528 1192 q 679 1135 656 1135 q 719 1149 704 1135 q 749 1204 733 1164 l 796 1192 q 749 1091 776 1119 q 679 1063 722 1063 q 589 1091 653 1063 q 501 1119 525 1119 q 462 1105 476 1119 q 432 1050 447 1090 z "},"Ö":{"ha":1181,"x_min":101,"x_max":1079,"o":"m 942 132 q 873 58 942 132 q 589 -17 804 -17 q 238 131 374 -17 q 101 486 101 279 q 239 840 101 692 q 592 989 376 989 q 943 841 807 989 q 1079 486 1079 693 q 942 132 1079 281 m 295 176 q 355 113 295 176 q 592 49 414 49 q 887 175 769 49 q 1004 486 1004 301 q 885 796 1004 668 q 589 924 767 924 q 294 797 411 924 q 176 486 176 671 q 295 176 176 304 m 429 1063 l 429 1174 l 525 1174 l 525 1063 l 429 1063 m 656 1063 l 656 1174 l 751 1174 l 751 1063 l 656 1063 z "},"×":{"ha":889,"x_min":119,"x_max":768,"o":"m 768 214 l 717 163 l 443 438 l 171 163 l 119 214 l 393 488 l 119 761 l 171 813 l 443 538 l 717 813 l 768 761 l 494 488 l 768 214 z "},"Ø":{"ha":1181,"x_min":90,"x_max":1090,"o":"m 589 -17 q 272 97 404 -17 l 174 -7 l 90 -7 l 229 140 q 101 486 101 283 q 239 840 101 692 q 592 989 376 989 q 908 874 778 989 l 1007 979 l 1090 979 l 951 832 q 1079 486 1079 689 q 942 132 1079 281 q 589 -17 804 -17 m 592 49 q 887 175 769 49 q 1004 486 1004 301 q 901 778 1004 656 l 319 153 q 592 49 432 49 m 279 194 l 861 819 q 589 924 749 924 q 294 797 411 924 q 176 486 176 671 q 279 194 176 317 z "},"Ù":{"ha":1056,"x_min":129,"x_max":926,"o":"m 528 -15 q 239 94 349 -15 q 129 404 129 204 l 129 972 l 201 972 l 201 411 q 289 145 201 240 q 531 50 376 50 q 768 141 682 50 q 854 404 854 232 l 854 972 l 926 972 l 926 413 q 818 97 926 208 q 528 -15 710 -15 m 504 1056 l 356 1199 l 440 1240 l 563 1056 l 504 1056 z "},"Ú":{"ha":1056,"x_min":129,"x_max":926,"o":"m 528 -15 q 239 94 349 -15 q 129 404 129 204 l 129 972 l 201 972 l 201 411 q 289 145 201 240 q 531 50 376 50 q 768 141 682 50 q 854 404 854 232 l 854 972 l 926 972 l 926 413 q 818 97 926 208 q 528 -15 710 -15 m 493 1056 l 615 1240 l 700 1199 l 551 1056 l 493 1056 z "},"Û":{"ha":1056,"x_min":129,"x_max":926,"o":"m 528 -15 q 239 94 349 -15 q 129 404 129 204 l 129 972 l 201 972 l 201 411 q 289 145 201 240 q 531 50 376 50 q 768 141 682 50 q 854 404 854 232 l 854 972 l 926 972 l 926 413 q 818 97 926 208 q 528 -15 710 -15 m 361 1056 l 500 1225 l 556 1225 l 694 1056 l 629 1056 l 526 1150 l 424 1056 l 361 1056 z "},"Ü":{"ha":1056,"x_min":129,"x_max":926,"o":"m 528 -15 q 239 94 349 -15 q 129 404 129 204 l 129 972 l 201 972 l 201 411 q 289 145 201 240 q 531 50 376 50 q 768 141 682 50 q 854 404 854 232 l 854 972 l 926 972 l 926 413 q 818 97 926 208 q 528 -15 710 -15 m 367 1056 l 367 1167 l 463 1167 l 463 1056 l 367 1056 m 593 1056 l 593 1167 l 689 1167 l 689 1056 l 593 1056 z "},"Ý":{"ha":994,"x_min":44,"x_max":950,"o":"m 461 0 l 461 385 l 44 972 l 135 972 l 499 450 l 864 972 l 950 972 l 533 386 l 533 0 l 461 0 m 472 1056 l 594 1240 l 679 1199 l 531 1056 l 472 1056 z "},"Þ":{"ha":935,"x_min":144,"x_max":858,"o":"m 144 0 l 144 972 l 217 972 l 217 796 l 497 796 q 759 716 660 796 q 858 496 858 636 q 749 267 858 349 q 479 185 640 185 l 217 185 l 217 0 l 144 0 m 217 251 l 483 251 q 703 318 619 251 q 786 494 786 385 q 706 668 786 607 q 492 729 626 729 l 217 729 l 217 251 z "},"ß":{"ha":861,"x_min":129,"x_max":774,"o":"m 401 -3 l 401 57 q 621 112 542 60 q 700 263 700 164 q 401 475 700 443 l 401 532 q 638 778 638 604 q 580 908 638 857 q 431 960 522 960 q 263 888 328 960 q 197 694 197 815 l 197 0 l 129 0 l 129 694 q 213 932 129 840 q 435 1024 296 1024 q 635 953 558 1024 q 711 778 711 883 q 648 615 711 683 q 493 514 585 547 q 694 431 615 493 q 774 263 774 369 q 674 67 774 138 q 401 -3 574 -3 z "},"à":{"ha":797,"x_min":71,"x_max":682,"o":"m 344 -17 q 153 43 236 -17 q 71 208 71 103 q 156 378 71 317 q 381 439 240 439 q 615 408 500 439 l 615 439 q 554 600 615 544 q 382 656 493 656 q 160 599 271 656 l 135 658 q 386 719 267 719 q 610 642 532 719 q 682 442 682 569 l 682 0 l 615 0 l 615 118 q 344 -17 519 -17 m 349 47 q 538 109 460 47 q 617 265 617 171 l 617 346 q 376 378 492 378 q 204 333 265 378 q 143 210 143 288 q 203 92 143 136 q 349 47 264 47 m 367 826 l 218 969 l 303 1011 l 425 826 l 367 826 z "},"á":{"ha":797,"x_min":71,"x_max":682,"o":"m 344 -17 q 153 43 236 -17 q 71 208 71 103 q 156 378 71 317 q 381 439 240 439 q 615 408 500 439 l 615 439 q 554 600 615 544 q 382 656 493 656 q 160 599 271 656 l 135 658 q 386 719 267 719 q 610 642 532 719 q 682 442 682 569 l 682 0 l 615 0 l 615 118 q 344 -17 519 -17 m 349 47 q 538 109 460 47 q 617 265 617 171 l 617 346 q 376 378 492 378 q 204 333 265 378 q 143 210 143 288 q 203 92 143 136 q 349 47 264 47 m 356 826 l 478 1011 l 563 969 l 414 826 l 356 826 z "},"â":{"ha":797,"x_min":71,"x_max":682,"o":"m 344 -17 q 153 43 236 -17 q 71 208 71 103 q 156 378 71 317 q 381 439 240 439 q 615 408 500 439 l 615 439 q 554 600 615 544 q 382 656 493 656 q 160 599 271 656 l 135 658 q 386 719 267 719 q 610 642 532 719 q 682 442 682 569 l 682 0 l 615 0 l 615 118 q 344 -17 519 -17 m 349 47 q 538 109 460 47 q 617 265 617 171 l 617 346 q 376 378 492 378 q 204 333 265 378 q 143 210 143 288 q 203 92 143 136 q 349 47 264 47 m 236 826 l 375 996 l 431 996 l 569 826 l 504 826 l 401 921 l 299 826 l 236 826 z "},"ã":{"ha":797,"x_min":71,"x_max":682,"o":"m 344 -17 q 153 43 236 -17 q 71 208 71 103 q 156 378 71 317 q 381 439 240 439 q 615 408 500 439 l 615 439 q 554 600 615 544 q 382 656 493 656 q 160 599 271 656 l 135 658 q 386 719 267 719 q 610 642 532 719 q 682 442 682 569 l 682 0 l 615 0 l 615 118 q 344 -17 519 -17 m 349 47 q 538 109 460 47 q 617 265 617 171 l 617 346 q 376 378 492 378 q 204 333 265 378 q 143 210 143 288 q 203 92 143 136 q 349 47 264 47 m 244 814 l 197 826 q 244 927 217 899 q 314 956 271 956 q 405 927 340 956 q 492 899 469 899 q 531 913 517 899 q 561 968 546 928 l 608 956 q 562 855 589 883 q 492 826 535 826 q 400 855 464 826 q 314 883 336 883 q 274 869 289 883 q 244 814 260 854 z "},"ä":{"ha":797,"x_min":71,"x_max":682,"o":"m 344 -17 q 153 43 236 -17 q 71 208 71 103 q 156 378 71 317 q 381 439 240 439 q 615 408 500 439 l 615 439 q 554 600 615 544 q 382 656 493 656 q 160 599 271 656 l 135 658 q 386 719 267 719 q 610 642 532 719 q 682 442 682 569 l 682 0 l 615 0 l 615 118 q 344 -17 519 -17 m 349 47 q 538 109 460 47 q 617 265 617 171 l 617 346 q 376 378 492 378 q 204 333 265 378 q 143 210 143 288 q 203 92 143 136 q 349 47 264 47 m 242 826 l 242 938 l 338 938 l 338 826 l 242 826 m 468 826 l 468 938 l 564 938 l 564 826 l 468 826 z "},"å":{"ha":797,"x_min":71,"x_max":682,"o":"m 344 -17 q 153 43 236 -17 q 71 208 71 103 q 156 378 71 317 q 381 439 240 439 q 615 408 500 439 l 615 439 q 554 600 615 544 q 382 656 493 656 q 160 599 271 656 l 135 658 q 386 719 267 719 q 610 642 532 719 q 682 442 682 569 l 682 0 l 615 0 l 615 118 q 344 -17 519 -17 m 349 47 q 538 109 460 47 q 617 265 617 171 l 617 346 q 376 378 492 378 q 204 333 265 378 q 143 210 143 288 q 203 92 143 136 q 349 47 264 47 m 498 862 q 477 843 498 862 q 403 824 457 824 q 308 863 349 824 q 267 956 267 901 q 308 1047 267 1008 q 403 1085 349 1085 q 498 1046 457 1085 q 539 953 539 1007 q 498 862 539 900 m 342 893 q 355 881 342 893 q 403 868 368 868 q 463 894 438 868 q 489 956 489 919 q 463 1015 489 990 q 403 1040 438 1040 q 342 1015 367 1040 q 317 953 317 989 q 342 893 317 918 z "},"æ":{"ha":1325,"x_min":71,"x_max":1256,"o":"m 338 -17 q 151 43 231 -17 q 71 208 71 103 q 154 378 71 317 q 374 439 238 439 q 596 408 481 439 l 596 439 q 538 600 596 544 q 372 656 479 656 q 160 599 271 656 l 135 658 q 376 719 264 719 q 644 542 596 719 q 763 675 688 625 q 931 725 839 725 q 1166 619 1076 725 q 1256 354 1256 514 q 1254 326 1256 338 l 667 326 q 756 123 676 199 q 944 47 836 47 q 1188 158 1083 47 l 1235 117 q 942 -17 1111 -17 q 778 24 854 -17 q 656 139 703 65 q 338 -17 521 -17 m 342 47 q 625 196 506 47 q 594 347 596 268 q 369 378 463 378 q 202 333 261 378 q 143 210 143 288 q 200 91 143 135 q 342 47 257 47 m 667 388 l 1182 388 q 1108 583 1174 504 q 928 663 1043 663 q 750 584 824 663 q 667 388 676 506 z "},"ç":{"ha":793,"x_min":81,"x_max":731,"o":"m 365 -206 l 289 -169 l 394 -14 q 170 109 260 4 q 81 354 81 214 q 186 615 81 504 q 442 725 292 725 q 725 594 600 725 l 676 544 q 440 661 563 661 q 237 572 319 661 q 154 354 154 483 q 239 137 154 226 q 446 47 324 47 q 683 165 578 47 l 731 124 q 458 -17 611 -10 l 365 -206 z "},"è":{"ha":811,"x_min":81,"x_max":742,"o":"m 428 -17 q 183 88 285 -17 q 81 356 81 192 q 177 618 81 511 q 417 725 274 725 q 652 619 563 725 q 742 354 742 514 q 740 326 742 338 l 153 326 q 242 123 163 199 q 431 47 322 47 q 674 158 569 47 l 721 117 q 428 -17 597 -17 m 153 388 l 668 388 q 594 583 660 504 q 414 663 529 663 q 236 584 310 663 q 153 388 163 506 m 397 826 l 249 969 l 333 1011 l 456 826 l 397 826 z "},"é":{"ha":811,"x_min":81,"x_max":742,"o":"m 428 -17 q 183 88 285 -17 q 81 356 81 192 q 177 618 81 511 q 417 725 274 725 q 652 619 563 725 q 742 354 742 514 q 740 326 742 338 l 153 326 q 242 123 163 199 q 431 47 322 47 q 674 158 569 47 l 721 117 q 428 -17 597 -17 m 153 388 l 668 388 q 594 583 660 504 q 414 663 529 663 q 236 584 310 663 q 153 388 163 506 m 357 826 l 479 1011 l 564 969 l 415 826 l 357 826 z "},"ê":{"ha":811,"x_min":81,"x_max":742,"o":"m 428 -17 q 183 88 285 -17 q 81 356 81 192 q 177 618 81 511 q 417 725 274 725 q 652 619 563 725 q 742 354 742 514 q 740 326 742 338 l 153 326 q 242 123 163 199 q 431 47 322 47 q 674 158 569 47 l 721 117 q 428 -17 597 -17 m 153 388 l 668 388 q 594 583 660 504 q 414 663 529 663 q 236 584 310 663 q 153 388 163 506 m 246 826 l 385 996 l 440 996 l 579 826 l 514 826 l 411 921 l 308 826 l 246 826 z "},"ë":{"ha":811,"x_min":81,"x_max":742,"o":"m 428 -17 q 183 88 285 -17 q 81 356 81 192 q 177 618 81 511 q 417 725 274 725 q 652 619 563 725 q 742 354 742 514 q 740 326 742 338 l 153 326 q 242 123 163 199 q 431 47 322 47 q 674 158 569 47 l 721 117 q 428 -17 597 -17 m 153 388 l 668 388 q 594 583 660 504 q 414 663 529 663 q 236 584 310 663 q 153 388 163 506 m 251 826 l 251 938 l 347 938 l 347 826 l 251 826 m 478 826 l 478 938 l 574 938 l 574 826 l 478 826 z "},"ì":{"ha":346,"x_min":-7,"x_max":207,"o":"m 139 0 l 139 708 l 207 708 l 207 0 l 139 0 m 142 826 l -7 969 l 78 1011 l 200 826 l 142 826 z "},"í":{"ha":346,"x_min":139,"x_max":353,"o":"m 139 0 l 139 708 l 207 708 l 207 0 l 139 0 m 146 826 l 268 1011 l 353 969 l 204 826 l 146 826 z "},"î":{"ha":346,"x_min":6,"x_max":339,"o":"m 139 0 l 139 708 l 207 708 l 207 0 l 139 0 m 6 826 l 144 996 l 200 996 l 339 826 l 274 826 l 171 921 l 68 826 l 6 826 z "},"ï":{"ha":346,"x_min":11,"x_max":333,"o":"m 139 0 l 139 708 l 207 708 l 207 0 l 139 0 m 11 826 l 11 938 l 107 938 l 107 826 l 11 826 m 238 826 l 238 938 l 333 938 l 333 826 l 238 826 z "},"ð":{"ha":872,"x_min":81,"x_max":789,"o":"m 429 -17 q 181 88 281 -17 q 81 340 81 193 q 179 581 81 486 q 414 675 278 675 q 660 588 546 675 l 456 876 l 271 782 l 231 832 l 421 925 l 358 1014 l 446 1014 l 483 957 l 619 1026 l 658 976 l 517 907 l 668 683 q 758 517 728 596 q 789 343 789 438 q 688 90 789 196 q 429 -17 588 -17 m 436 47 q 637 133 558 47 q 715 339 715 219 q 631 533 715 453 q 422 614 546 614 q 228 534 301 614 q 154 333 154 454 q 235 134 154 221 q 436 47 317 47 z "},"ñ":{"ha":851,"x_min":129,"x_max":736,"o":"m 129 0 l 129 708 l 197 708 l 197 576 q 453 725 282 725 q 660 644 585 725 q 736 433 736 563 l 736 0 l 668 0 l 668 421 q 608 597 668 532 q 443 663 549 663 q 267 591 338 663 q 197 410 197 519 l 197 0 l 129 0 m 274 814 l 226 826 q 273 927 246 899 q 343 956 300 956 q 434 927 369 956 q 521 899 499 899 q 560 913 546 899 q 590 968 575 928 l 638 956 q 591 855 618 883 q 521 826 564 826 q 431 855 494 826 q 343 883 367 883 q 303 869 318 883 q 274 814 289 854 z "},"ò":{"ha":889,"x_min":81,"x_max":808,"o":"m 703 93 q 651 38 703 93 q 443 -17 599 -17 q 184 92 288 -17 q 81 354 81 201 q 185 615 81 506 q 446 725 290 725 q 705 616 601 725 q 808 354 808 507 q 703 93 808 203 m 446 47 q 649 138 564 47 q 735 354 735 228 q 649 572 735 482 q 443 661 564 661 q 239 572 324 661 q 154 354 154 482 q 239 137 154 226 q 446 47 324 47 m 414 826 l 265 969 l 350 1011 l 472 826 l 414 826 z "},"ó":{"ha":889,"x_min":81,"x_max":808,"o":"m 703 93 q 651 38 703 93 q 443 -17 599 -17 q 184 92 288 -17 q 81 354 81 201 q 185 615 81 506 q 446 725 290 725 q 705 616 601 725 q 808 354 808 507 q 703 93 808 203 m 446 47 q 649 138 564 47 q 735 354 735 228 q 649 572 735 482 q 443 661 564 661 q 239 572 324 661 q 154 354 154 482 q 239 137 154 226 q 446 47 324 47 m 417 826 l 539 1011 l 624 969 l 475 826 l 417 826 z "},"ô":{"ha":889,"x_min":81,"x_max":808,"o":"m 703 93 q 651 38 703 93 q 443 -17 599 -17 q 184 92 288 -17 q 81 354 81 201 q 185 615 81 506 q 446 725 290 725 q 705 616 601 725 q 808 354 808 507 q 703 93 808 203 m 446 47 q 649 138 564 47 q 735 354 735 228 q 649 572 735 482 q 443 661 564 661 q 239 572 324 661 q 154 354 154 482 q 239 137 154 226 q 446 47 324 47 m 278 826 l 417 996 l 472 996 l 611 826 l 546 826 l 443 921 l 340 826 l 278 826 z "},"õ":{"ha":889,"x_min":81,"x_max":808,"o":"m 703 93 q 651 38 703 93 q 443 -17 599 -17 q 184 92 288 -17 q 81 354 81 201 q 185 615 81 506 q 446 725 290 725 q 705 616 601 725 q 808 354 808 507 q 703 93 808 203 m 446 47 q 649 138 564 47 q 735 354 735 228 q 649 572 735 482 q 443 661 564 661 q 239 572 324 661 q 154 354 154 482 q 239 137 154 226 q 446 47 324 47 m 286 814 l 239 826 q 285 927 258 899 q 356 956 313 956 q 447 927 383 956 q 533 899 511 899 q 573 913 558 899 q 603 968 588 928 l 650 956 q 603 855 631 883 q 533 826 576 826 q 442 855 506 826 q 356 883 378 883 q 316 869 331 883 q 286 814 301 854 z "},"ö":{"ha":889,"x_min":81,"x_max":808,"o":"m 703 93 q 651 38 703 93 q 443 -17 599 -17 q 184 92 288 -17 q 81 354 81 201 q 185 615 81 506 q 446 725 290 725 q 705 616 601 725 q 808 354 808 507 q 703 93 808 203 m 446 47 q 649 138 564 47 q 735 354 735 228 q 649 572 735 482 q 443 661 564 661 q 239 572 324 661 q 154 354 154 482 q 239 137 154 226 q 446 47 324 47 m 283 826 l 283 938 l 379 938 l 379 826 l 283 826 m 510 826 l 510 938 l 606 938 l 606 826 l 510 826 z "},"÷":{"ha":889,"x_min":129,"x_max":760,"o":"m 129 456 l 129 526 l 760 526 l 760 456 l 129 456 m 399 179 l 399 297 l 490 297 l 490 179 l 399 179 m 399 685 l 399 803 l 490 803 l 490 685 l 399 685 z "},"ø":{"ha":889,"x_min":60,"x_max":829,"o":"m 443 -17 q 211 67 310 -17 l 139 -7 l 60 -7 l 169 107 q 81 354 81 211 q 185 615 81 506 q 446 725 290 725 q 678 640 579 725 l 750 718 l 829 718 l 718 601 q 808 354 808 497 q 703 93 808 203 q 443 -17 599 -17 m 446 47 q 653 136 571 47 q 735 354 735 225 q 669 550 735 464 l 256 119 q 446 47 336 47 m 219 158 l 633 588 q 443 661 551 661 q 236 572 318 661 q 154 354 154 483 q 219 158 154 243 z "},"ù":{"ha":851,"x_min":115,"x_max":722,"o":"m 399 -17 q 191 65 267 -17 q 115 275 115 146 l 115 708 l 183 708 l 183 288 q 243 111 183 176 q 408 46 303 46 q 584 117 514 46 q 654 299 654 189 l 654 708 l 722 708 l 722 0 l 654 0 l 654 132 q 399 -17 569 -17 m 401 819 l 253 963 l 338 1004 l 460 819 l 401 819 z "},"ú":{"ha":851,"x_min":115,"x_max":722,"o":"m 399 -17 q 191 65 267 -17 q 115 275 115 146 l 115 708 l 183 708 l 183 288 q 243 111 183 176 q 408 46 303 46 q 584 117 514 46 q 654 299 654 189 l 654 708 l 722 708 l 722 0 l 654 0 l 654 132 q 399 -17 569 -17 m 385 819 l 507 1004 l 592 963 l 443 819 l 385 819 z "},"û":{"ha":851,"x_min":115,"x_max":722,"o":"m 399 -17 q 191 65 267 -17 q 115 275 115 146 l 115 708 l 183 708 l 183 288 q 243 111 183 176 q 408 46 303 46 q 584 117 514 46 q 654 299 654 189 l 654 708 l 722 708 l 722 0 l 654 0 l 654 132 q 399 -17 569 -17 m 261 826 l 400 996 l 456 996 l 594 826 l 529 826 l 426 921 l 324 826 l 261 826 z "},"ü":{"ha":851,"x_min":115,"x_max":722,"o":"m 399 -17 q 191 65 267 -17 q 115 275 115 146 l 115 708 l 183 708 l 183 288 q 243 111 183 176 q 408 46 303 46 q 584 117 514 46 q 654 299 654 189 l 654 708 l 722 708 l 722 0 l 654 0 l 654 132 q 399 -17 569 -17 m 267 826 l 267 938 l 363 938 l 363 826 l 267 826 m 493 826 l 493 938 l 589 938 l 589 826 l 493 826 z "},"ý":{"ha":817,"x_min":54,"x_max":758,"o":"m 215 -226 q 75 -196 144 -226 l 99 -136 q 219 -162 153 -162 q 315 -125 275 -162 q 394 4 356 -87 l 54 708 l 133 708 l 428 75 l 683 708 l 758 708 l 451 -25 q 349 -180 406 -133 q 215 -226 293 -226 m 390 819 l 513 1004 l 597 963 l 449 819 l 390 819 z "},"þ":{"ha":917,"x_min":129,"x_max":833,"o":"m 129 -222 l 129 1014 l 197 1014 l 197 550 q 489 725 313 725 q 729 623 625 725 q 833 354 833 521 q 729 86 833 189 q 489 -17 625 -17 q 197 153 308 -17 l 197 -222 l 129 -222 m 482 49 q 681 131 601 49 q 760 354 760 214 q 678 575 760 490 q 482 660 597 660 q 280 573 367 660 q 193 353 193 486 q 280 135 193 221 q 482 49 367 49 z "},"ÿ":{"ha":817,"x_min":54,"x_max":758,"o":"m 215 -226 q 75 -196 144 -226 l 99 -136 q 219 -162 153 -162 q 315 -125 275 -162 q 394 4 356 -87 l 54 708 l 133 708 l 428 75 l 683 708 l 758 708 l 451 -25 q 349 -180 406 -133 q 215 -226 293 -226 m 247 826 l 247 938 l 343 938 l 343 826 l 247 826 m 474 826 l 474 938 l 569 938 l 569 826 l 474 826 z "},"ı":{"ha":346,"x_min":139,"x_max":207,"o":"m 139 0 l 139 708 l 207 708 l 207 0 l 139 0 z "},"Ł":{"ha":901,"x_min":82,"x_max":829,"o":"m 186 0 l 186 439 l 82 407 l 82 474 l 186 506 l 186 972 l 257 972 l 257 528 l 569 624 l 569 557 l 257 461 l 257 67 l 829 67 l 829 0 l 186 0 z "},"ł":{"ha":429,"x_min":75,"x_max":354,"o":"m 181 0 l 181 467 l 75 433 l 75 503 l 181 535 l 181 1014 l 249 1014 l 249 556 l 354 589 l 354 519 l 249 486 l 249 0 l 181 0 z "},"Œ":{"ha":1600,"x_min":101,"x_max":1513,"o":"m 618 0 q 246 138 390 0 q 101 486 101 276 q 247 833 101 694 q 618 972 392 972 l 1506 972 l 1506 906 l 907 906 l 907 524 l 1443 524 l 1443 457 l 907 457 l 907 67 l 1513 67 l 1513 0 l 618 0 m 618 67 l 835 67 l 835 906 l 618 906 q 298 786 419 906 q 176 486 176 667 q 298 188 176 308 q 618 67 419 67 z "},"œ":{"ha":1465,"x_min":81,"x_max":1396,"o":"m 442 -17 q 185 92 289 -17 q 81 354 81 201 q 185 615 81 506 q 444 725 290 725 q 641 665 554 725 q 769 508 728 606 q 889 666 808 607 q 1072 725 969 725 q 1307 619 1218 725 q 1396 354 1396 514 q 1394 326 1396 338 l 807 326 q 897 123 817 199 q 1085 47 976 47 q 1328 158 1224 47 l 1375 117 q 1085 -17 1251 -17 q 895 42 981 -17 q 769 201 810 101 q 640 44 728 104 q 442 -17 553 -17 m 446 47 q 653 136 571 47 q 735 354 735 225 q 650 572 735 482 q 443 661 565 661 q 236 572 318 661 q 154 354 154 483 q 239 137 154 226 q 446 47 324 47 m 807 388 l 1322 388 q 1249 583 1314 504 q 1068 663 1183 663 q 890 584 964 663 q 807 388 817 506 z "},"Š":{"ha":889,"x_min":82,"x_max":796,"o":"m 474 -14 q 82 142 256 -14 l 129 196 q 292 85 211 119 q 478 51 372 51 q 655 106 586 51 q 724 247 724 161 q 666 375 724 328 q 449 454 608 422 q 197 554 274 490 q 121 731 121 618 q 210 913 121 839 q 433 986 299 986 q 613 958 536 986 q 767 868 690 929 l 721 811 q 431 921 594 921 q 259 867 325 921 q 193 735 193 814 q 252 604 193 653 q 476 522 311 556 q 720 424 644 488 q 796 251 796 360 q 706 60 796 135 q 474 -14 615 -14 m 426 1063 l 288 1232 l 353 1232 l 456 1138 l 558 1232 l 621 1232 l 482 1063 l 426 1063 z "},"š":{"ha":690,"x_min":68,"x_max":603,"o":"m 358 -14 q 203 15 282 -14 q 68 89 125 43 l 108 143 q 363 50 229 50 q 485 88 436 50 q 533 188 533 125 q 485 274 533 244 q 346 329 438 303 q 275 350 297 343 q 213 375 253 357 q 153 411 172 393 q 119 459 135 429 q 103 526 103 489 q 168 667 103 613 q 336 722 233 722 q 588 644 471 722 l 551 588 q 333 658 444 658 q 217 623 261 658 q 172 532 172 588 q 184 490 172 510 q 212 458 196 471 q 258 433 228 446 q 309 413 288 419 q 369 394 331 406 q 456 367 422 379 q 527 331 489 354 q 584 273 565 307 q 603 193 603 239 q 533 43 603 100 q 358 -14 463 -14 m 321 826 l 182 996 l 247 996 l 350 901 l 453 996 l 515 996 l 376 826 l 321 826 z "},"Ÿ":{"ha":994,"x_min":44,"x_max":950,"o":"m 461 0 l 461 385 l 44 972 l 135 972 l 499 450 l 864 972 l 950 972 l 533 386 l 533 0 l 461 0 m 336 1056 l 336 1167 l 432 1167 l 432 1056 l 336 1056 m 563 1056 l 563 1167 l 658 1167 l 658 1056 l 563 1056 z "},"Ž":{"ha":956,"x_min":94,"x_max":863,"o":"m 94 0 l 94 40 l 760 907 l 118 907 l 118 972 l 863 972 l 863 932 l 197 65 l 863 65 l 863 0 l 94 0 m 457 1063 l 318 1232 l 383 1232 l 486 1138 l 589 1232 l 651 1232 l 513 1063 l 457 1063 z "},"ž":{"ha":769,"x_min":81,"x_max":693,"o":"m 81 0 l 81 39 l 592 647 l 100 647 l 100 708 l 693 708 l 693 669 l 182 61 l 693 61 l 693 0 l 81 0 m 369 826 l 231 996 l 296 996 l 399 901 l 501 996 l 564 996 l 425 826 l 369 826 z "},"ƒ":{"ha":703,"x_min":57,"x_max":653,"o":"m 125 -7 q 57 -1 93 -7 l 57 60 q 121 54 85 54 q 235 168 214 54 l 303 533 l 151 533 l 151 596 l 314 596 l 350 785 q 417 933 369 888 q 549 979 465 979 q 653 965 606 979 l 653 904 q 556 918 597 918 q 468 886 499 918 q 424 781 438 854 l 389 596 l 604 596 l 604 533 l 378 533 l 308 164 q 247 35 292 76 q 125 -7 203 -7 z "},"ˆ":{"ha":694,"x_min":181,"x_max":514,"o":"m 181 826 l 319 996 l 375 996 l 514 826 l 449 826 l 346 921 l 243 826 l 181 826 z "},"ˇ":{"ha":694,"x_min":181,"x_max":514,"o":"m 319 826 l 181 996 l 246 996 l 349 901 l 451 996 l 514 996 l 375 826 l 319 826 z "},"˘":{"ha":694,"x_min":163,"x_max":532,"o":"m 476 869 q 450 847 476 869 q 347 824 425 824 q 219 869 269 824 q 163 996 168 915 l 217 996 q 347 894 243 894 q 478 996 451 894 l 532 996 q 476 869 526 915 z "},"˙":{"ha":694,"x_min":297,"x_max":397,"o":"m 297 826 l 297 939 l 397 939 l 397 826 l 297 826 z "},"˚":{"ha":694,"x_min":211,"x_max":483,"o":"m 442 862 q 422 843 442 862 q 347 824 401 824 q 252 863 293 824 q 211 956 211 901 q 252 1047 211 1008 q 347 1085 293 1085 q 442 1046 401 1085 q 483 953 483 1007 q 442 862 483 900 m 287 893 q 300 881 287 893 q 347 868 313 868 q 408 894 382 868 q 433 956 433 919 q 408 1015 433 990 q 347 1040 382 1040 q 286 1015 311 1040 q 261 953 261 989 q 287 893 261 918 z "},"˛":{"ha":694,"x_min":260,"x_max":494,"o":"m 494 -228 l 476 -228 q 315 -187 371 -228 q 260 -79 260 -146 q 279 14 260 -32 l 339 14 q 331 -64 331 -24 q 494 -185 331 -176 l 494 -228 z "},"˜":{"ha":694,"x_min":142,"x_max":553,"o":"m 189 814 l 142 826 q 188 927 161 899 q 258 956 215 956 q 349 927 285 956 q 436 899 414 899 q 476 913 461 899 q 506 968 490 928 l 553 956 q 506 855 533 883 q 436 826 479 826 q 345 855 410 826 q 258 883 281 883 q 219 869 233 883 q 189 814 204 854 z "},"˝":{"ha":694,"x_min":142,"x_max":553,"o":"m 142 826 l 265 1011 l 342 971 l 201 826 l 142 826 m 353 826 l 476 1011 l 553 971 l 413 826 l 353 826 z "},"Ω":{"ha":1100,"x_min":118,"x_max":982,"o":"m 982 0 l 649 0 l 649 244 q 840 352 774 265 q 907 569 907 439 q 803 817 907 719 q 549 914 700 914 q 295 817 399 914 q 192 571 192 719 q 260 351 192 443 q 451 244 329 258 l 451 0 l 118 0 l 118 65 l 392 65 l 392 190 q 192 330 265 224 q 118 569 118 436 q 245 865 118 747 q 551 982 372 982 q 854 865 728 982 q 981 572 981 747 q 908 331 981 436 q 708 190 836 226 l 708 65 l 982 65 l 982 0 z "},"Ω":{"ha":1100,"x_min":118,"x_max":982,"o":"m 982 0 l 649 0 l 649 244 q 840 352 774 265 q 907 569 907 439 q 803 817 907 719 q 549 914 700 914 q 295 817 399 914 q 192 571 192 719 q 260 351 192 443 q 451 244 329 258 l 451 0 l 118 0 l 118 65 l 392 65 l 392 190 q 192 330 265 224 q 118 569 118 436 q 245 865 118 747 q 551 982 372 982 q 854 865 728 982 q 981 572 981 747 q 908 331 981 436 q 708 190 836 226 l 708 65 l 982 65 l 982 0 z "},"π":{"ha":694,"x_min":0,"x_max":694,"o":"m 0 0 l 0 972 l 694 972 l 694 0 l 0 0 m 113 68 l 583 68 l 347 422 l 113 68 m 68 133 l 306 486 l 68 839 l 68 133 m 625 133 l 625 839 l 388 486 l 625 133 m 347 549 l 583 903 l 113 903 l 347 549 z "},"Ё":{"ha":931,"x_min":144,"x_max":843,"o":"m 144 0 l 144 972 l 836 972 l 836 906 l 217 906 l 217 524 l 774 524 l 774 457 l 217 457 l 217 67 l 843 67 l 843 0 l 144 0 m 332 1063 l 332 1174 l 428 1174 l 428 1063 l 332 1063 m 558 1063 l 558 1174 l 654 1174 l 654 1063 l 558 1063 z "},"Ђ":{"ha":1189,"x_min":75,"x_max":1103,"o":"m 783 -17 q 643 14 713 -17 l 667 74 q 788 49 718 49 q 956 114 881 49 q 1031 315 1031 179 q 963 503 1031 431 q 785 575 894 575 q 603 542 682 575 q 444 439 524 510 l 444 0 l 372 0 l 372 906 l 75 906 l 75 972 l 825 972 l 825 906 l 444 906 l 444 517 q 781 640 600 640 q 1014 554 925 640 q 1103 317 1103 468 q 1014 73 1103 163 q 783 -17 925 -17 z "},"Ѓ":{"ha":819,"x_min":144,"x_max":751,"o":"m 144 0 l 144 972 l 751 972 l 751 906 l 217 906 l 217 0 l 144 0 m 375 1063 l 497 1247 l 582 1206 l 433 1063 l 375 1063 z "},"Є":{"ha":1025,"x_min":101,"x_max":971,"o":"m 585 -17 q 240 128 378 -17 q 101 483 101 272 q 240 842 101 694 q 588 989 379 989 q 790 949 707 989 q 960 831 874 910 l 914 781 q 586 924 767 924 q 305 810 421 924 q 178 524 189 696 l 701 524 l 701 457 l 176 457 q 304 165 188 282 q 588 49 421 49 q 767 86 689 49 q 922 200 844 124 l 971 150 q 585 -17 807 -17 z "},"Ѕ":{"ha":889,"x_min":82,"x_max":796,"o":"m 474 -14 q 82 142 256 -14 l 129 196 q 292 85 211 119 q 478 51 372 51 q 655 106 586 51 q 724 247 724 161 q 666 375 724 328 q 449 454 608 422 q 197 554 274 490 q 121 731 121 618 q 210 913 121 839 q 433 986 299 986 q 613 958 536 986 q 767 868 690 929 l 721 811 q 431 921 594 921 q 259 867 325 921 q 193 735 193 814 q 252 604 193 653 q 476 522 311 556 q 720 424 644 488 q 796 251 796 360 q 706 60 796 135 q 474 -14 615 -14 z "},"І":{"ha":381,"x_min":154,"x_max":226,"o":"m 154 0 l 154 972 l 226 972 l 226 0 l 154 0 z "},"Ї":{"ha":381,"x_min":29,"x_max":351,"o":"m 154 0 l 154 972 l 226 972 l 226 0 l 154 0 m 29 1063 l 29 1174 l 125 1174 l 125 1063 l 29 1063 m 256 1063 l 256 1174 l 351 1174 l 351 1063 l 256 1063 z "},"Ј":{"ha":763,"x_min":51,"x_max":633,"o":"m 346 -14 q 51 168 153 -14 l 111 206 q 213 89 158 126 q 350 51 268 51 q 502 119 443 51 q 561 311 561 188 l 561 972 l 633 972 l 633 317 q 544 64 633 153 q 346 -14 467 -14 z "},"Љ":{"ha":1636,"x_min":0,"x_max":1567,"o":"m 117 -10 q 0 14 56 -10 l 22 74 q 115 57 56 57 q 151 61 135 57 q 190 83 167 65 q 231 129 213 100 q 268 213 249 158 q 300 343 288 268 q 321 531 313 418 q 329 786 329 644 l 329 972 l 925 972 l 925 582 l 1213 582 q 1465 513 1364 582 q 1567 303 1567 443 q 1472 82 1567 164 q 1219 0 1376 0 l 853 0 l 853 906 l 399 906 l 399 783 q 382 431 399 579 q 340 199 365 283 q 276 67 315 115 q 200 4 236 18 q 117 -10 164 -10 m 925 67 l 1207 67 q 1417 126 1342 67 q 1492 300 1492 185 q 1415 460 1492 406 q 1199 515 1338 515 l 925 515 l 925 67 z "},"Њ":{"ha":1622,"x_min":144,"x_max":1553,"o":"m 144 0 l 144 972 l 217 972 l 217 554 l 839 554 l 839 972 l 911 972 l 911 554 l 1213 554 q 1457 488 1361 554 q 1553 289 1553 421 q 1463 79 1553 158 q 1219 0 1374 0 l 839 0 l 839 488 l 217 488 l 217 0 l 144 0 m 911 67 l 1207 67 q 1408 123 1339 67 q 1478 286 1478 179 q 1406 435 1478 383 q 1199 488 1335 488 l 911 488 l 911 67 z "},"Ћ":{"ha":1218,"x_min":75,"x_max":1103,"o":"m 372 0 l 372 906 l 75 906 l 75 972 l 825 972 l 825 906 l 444 906 l 444 496 q 781 619 600 619 q 1015 547 926 619 q 1103 340 1103 475 l 1103 0 l 1031 0 l 1031 347 q 963 497 1031 440 q 785 554 894 554 q 603 522 682 554 q 444 418 524 489 l 444 0 l 372 0 z "},"Ќ":{"ha":993,"x_min":144,"x_max":953,"o":"m 144 0 l 144 972 l 217 972 l 217 333 l 836 972 l 935 972 l 510 543 l 953 0 l 858 0 l 458 492 l 217 247 l 217 0 l 144 0 m 421 1063 l 543 1247 l 628 1206 l 479 1063 l 421 1063 z "},"Ў":{"ha":1010,"x_min":61,"x_max":949,"o":"m 281 -17 q 125 17 197 -17 l 153 79 q 281 51 210 51 q 500 221 415 51 l 61 972 l 146 972 l 536 296 l 869 972 l 949 972 l 563 197 q 281 -17 456 -17 m 660 1105 q 634 1082 660 1105 q 536 1060 608 1060 q 413 1105 464 1060 q 349 1219 361 1150 l 406 1232 q 536 1131 432 1131 q 667 1232 640 1131 l 724 1219 q 660 1105 711 1150 z "},"Џ":{"ha":1042,"x_min":144,"x_max":897,"o":"m 490 -222 l 490 0 l 144 0 l 144 972 l 217 972 l 217 67 l 825 67 l 825 972 l 897 972 l 897 0 l 565 0 l 565 -222 l 490 -222 z "},"А":{"ha":1097,"x_min":61,"x_max":1036,"o":"m 61 0 l 514 979 l 583 979 l 1036 0 l 957 0 l 833 272 l 260 272 l 136 0 l 61 0 m 290 338 l 803 338 l 547 900 l 290 338 z "},"Б":{"ha":983,"x_min":144,"x_max":896,"o":"m 144 0 l 144 972 l 822 972 l 822 906 l 217 906 l 217 561 l 544 561 q 801 494 706 561 q 896 289 896 428 q 806 75 896 150 q 556 0 717 0 l 144 0 m 217 67 l 542 67 q 821 289 821 67 q 747 442 821 390 q 535 494 672 494 l 217 494 l 217 67 z "},"В":{"ha":1003,"x_min":144,"x_max":915,"o":"m 144 0 l 144 972 l 546 972 q 775 906 689 972 q 861 731 861 840 q 696 500 861 567 q 915 265 915 443 q 820 72 915 144 q 567 0 725 0 l 144 0 m 217 67 l 569 67 q 768 121 694 67 q 842 268 842 175 q 765 408 842 358 q 546 457 689 457 l 217 457 l 217 67 m 217 524 l 538 524 q 719 576 650 524 q 788 726 788 629 q 724 857 788 808 q 544 906 660 906 l 217 906 l 217 524 z "},"Г":{"ha":819,"x_min":144,"x_max":751,"o":"m 144 0 l 144 972 l 751 972 l 751 906 l 217 906 l 217 0 l 144 0 z "},"Д":{"ha":1043,"x_min":14,"x_max":1001,"o":"m 14 -222 l 14 67 l 118 67 q 233 355 193 171 q 274 767 274 539 l 274 972 l 869 972 l 869 67 l 1001 67 l 988 -222 l 926 -222 l 926 0 l 89 0 l 75 -222 l 14 -222 m 201 67 l 797 67 l 797 906 l 344 906 l 344 714 q 306 340 344 517 q 201 67 268 164 z "},"Е":{"ha":931,"x_min":144,"x_max":843,"o":"m 144 0 l 144 972 l 836 972 l 836 906 l 217 906 l 217 524 l 774 524 l 774 457 l 217 457 l 217 67 l 843 67 l 843 0 l 144 0 z "},"Ж":{"ha":1489,"x_min":32,"x_max":1457,"o":"m 32 0 l 442 554 l 60 972 l 151 972 l 708 353 l 708 972 l 781 972 l 781 353 l 1338 972 l 1429 972 l 1047 554 l 1457 0 l 1367 0 l 997 500 l 781 263 l 781 0 l 708 0 l 708 263 l 490 500 l 122 0 l 32 0 z "},"З":{"ha":868,"x_min":56,"x_max":781,"o":"m 451 -17 q 56 139 229 -17 l 103 193 q 267 83 185 118 q 454 49 350 49 q 634 106 563 49 q 706 257 706 164 q 630 405 706 351 q 418 458 554 458 l 313 458 l 313 522 l 419 522 q 606 577 533 522 q 679 728 679 632 q 611 867 679 813 q 438 922 543 922 q 143 813 278 922 l 100 868 q 440 988 249 988 q 667 915 579 988 q 754 728 754 842 q 569 497 754 560 q 723 409 665 469 q 781 256 781 349 q 688 63 781 142 q 451 -17 594 -17 z "},"И":{"ha":1064,"x_min":144,"x_max":919,"o":"m 144 0 l 144 972 l 217 972 l 217 104 l 849 972 l 919 972 l 919 0 l 847 0 l 847 868 l 217 0 l 144 0 z "},"Й":{"ha":1064,"x_min":144,"x_max":919,"o":"m 144 0 l 144 972 l 217 972 l 217 104 l 849 972 l 919 972 l 919 0 l 847 0 l 847 868 l 217 0 l 144 0 m 657 1098 q 631 1075 657 1098 q 533 1053 606 1053 q 410 1098 461 1053 q 346 1213 358 1143 l 403 1225 q 533 1124 429 1124 q 664 1225 638 1124 l 721 1213 q 657 1098 708 1143 z "},"К":{"ha":993,"x_min":144,"x_max":953,"o":"m 144 0 l 144 972 l 217 972 l 217 333 l 836 972 l 935 972 l 510 543 l 953 0 l 858 0 l 458 492 l 217 247 l 217 0 l 144 0 z "},"Л":{"ha":1069,"x_min":0,"x_max":925,"o":"m 117 -10 q 0 14 56 -10 l 22 74 q 115 57 56 57 q 151 61 135 57 q 190 83 167 65 q 231 129 213 100 q 268 213 249 158 q 300 343 288 268 q 321 531 313 418 q 329 786 329 644 l 329 972 l 925 972 l 925 0 l 853 0 l 853 906 l 399 906 l 399 783 q 382 431 399 579 q 340 199 365 283 q 276 67 315 115 q 200 4 236 18 q 117 -10 164 -10 z "},"М":{"ha":1206,"x_min":144,"x_max":1061,"o":"m 144 0 l 144 972 l 213 972 l 603 397 l 993 972 l 1061 972 l 1061 0 l 989 0 l 989 844 l 604 285 l 599 285 l 214 844 l 214 0 l 144 0 z "},"Н":{"ha":1056,"x_min":144,"x_max":911,"o":"m 144 0 l 144 972 l 217 972 l 217 522 l 839 522 l 839 972 l 911 972 l 911 0 l 839 0 l 839 456 l 217 456 l 217 0 l 144 0 z "},"О":{"ha":1181,"x_min":101,"x_max":1079,"o":"m 942 132 q 873 58 942 132 q 589 -17 804 -17 q 238 131 374 -17 q 101 486 101 279 q 239 840 101 692 q 592 989 376 989 q 943 841 807 989 q 1079 486 1079 693 q 942 132 1079 281 m 295 176 q 355 113 295 176 q 592 49 414 49 q 887 175 769 49 q 1004 486 1004 301 q 885 796 1004 668 q 589 924 767 924 q 294 797 411 924 q 176 486 176 671 q 295 176 176 304 z "},"П":{"ha":1042,"x_min":144,"x_max":897,"o":"m 144 0 l 144 972 l 897 972 l 897 0 l 825 0 l 825 906 l 217 906 l 217 0 l 144 0 z "},"Р":{"ha":928,"x_min":144,"x_max":858,"o":"m 144 0 l 144 972 l 497 972 q 759 892 660 972 q 858 672 858 813 q 749 444 858 525 q 479 363 640 363 l 217 363 l 217 0 l 144 0 m 217 429 l 483 429 q 703 495 619 429 q 786 671 786 561 q 706 844 786 783 q 492 906 626 906 l 217 906 l 217 429 z "},"С":{"ha":1025,"x_min":101,"x_max":971,"o":"m 585 -17 q 240 128 378 -17 q 101 486 101 274 q 240 842 101 694 q 588 989 379 989 q 791 949 707 989 q 961 829 875 908 l 914 781 q 586 924 767 924 q 294 798 411 924 q 176 486 176 672 q 295 175 176 301 q 588 49 414 49 q 767 86 689 49 q 922 200 844 124 l 971 153 q 796 26 886 69 q 585 -17 706 -17 z "},"Т":{"ha":900,"x_min":75,"x_max":825,"o":"m 414 0 l 414 906 l 75 906 l 75 972 l 825 972 l 825 906 l 486 906 l 486 0 l 414 0 z "},"У":{"ha":1010,"x_min":61,"x_max":949,"o":"m 281 -17 q 125 17 197 -17 l 153 79 q 281 51 210 51 q 500 221 415 51 l 61 972 l 146 972 l 536 296 l 869 972 l 949 972 l 563 197 q 281 -17 456 -17 z "},"Ф":{"ha":1197,"x_min":69,"x_max":1128,"o":"m 563 -36 l 563 72 l 517 72 q 190 191 310 72 q 69 488 69 310 q 190 785 69 665 q 517 904 310 904 l 563 904 l 563 1003 l 635 1003 l 635 904 l 681 904 q 1008 785 888 904 q 1128 488 1128 665 q 1008 191 1128 310 q 681 72 888 72 l 635 72 l 635 -36 l 563 -36 m 517 138 l 563 138 l 563 839 l 517 839 q 242 740 340 836 q 144 488 144 644 q 242 236 144 332 q 517 138 340 140 m 635 138 l 681 138 q 955 236 857 140 q 1053 488 1053 332 q 955 740 1053 644 q 681 839 857 836 l 635 839 l 635 138 z "},"Х":{"ha":1003,"x_min":71,"x_max":932,"o":"m 71 0 l 458 496 l 85 972 l 171 972 l 503 544 l 833 972 l 918 972 l 546 497 l 932 0 l 846 0 l 500 449 l 156 0 l 71 0 z "},"Ц":{"ha":1071,"x_min":144,"x_max":1029,"o":"m 954 -222 l 954 0 l 144 0 l 144 972 l 217 972 l 217 67 l 825 67 l 825 972 l 897 972 l 897 67 l 1029 67 l 1015 -222 l 954 -222 z "},"Ч":{"ha":958,"x_min":111,"x_max":814,"o":"m 742 0 l 742 433 q 583 365 675 397 q 419 332 492 332 q 194 403 276 332 q 111 611 111 475 l 111 972 l 183 972 l 183 604 q 245 453 183 510 q 415 397 307 397 q 742 501 561 397 l 742 972 l 814 972 l 814 0 l 742 0 z "},"Ш":{"ha":1528,"x_min":144,"x_max":1383,"o":"m 144 0 l 144 972 l 217 972 l 217 67 l 728 67 l 728 972 l 800 972 l 800 67 l 1311 67 l 1311 972 l 1383 972 l 1383 0 l 144 0 z "},"Щ":{"ha":1557,"x_min":144,"x_max":1515,"o":"m 1440 -222 l 1440 0 l 144 0 l 144 972 l 217 972 l 217 67 l 728 67 l 728 972 l 800 972 l 800 67 l 1311 67 l 1311 972 l 1383 972 l 1383 67 l 1515 67 l 1501 -222 l 1440 -222 z "},"Ъ":{"ha":1117,"x_min":69,"x_max":1047,"o":"m 333 0 l 333 906 l 69 906 l 69 972 l 406 972 l 406 582 l 693 582 q 946 513 844 582 q 1047 303 1047 443 q 952 82 1047 164 q 700 0 857 0 l 333 0 m 406 67 l 688 67 q 897 126 822 67 q 972 300 972 185 q 895 460 972 406 q 679 515 818 515 l 406 515 l 406 67 z "},"Ы":{"ha":1208,"x_min":144,"x_max":1064,"o":"m 144 0 l 144 972 l 217 972 l 217 582 l 504 582 q 757 513 656 582 q 858 303 858 443 q 763 82 858 164 q 511 0 668 0 l 144 0 m 217 67 l 499 67 q 708 126 633 67 q 783 300 783 185 q 706 460 783 406 q 490 515 629 515 l 217 515 l 217 67 m 992 0 l 992 972 l 1064 972 l 1064 0 l 992 0 z "},"Ь":{"ha":928,"x_min":144,"x_max":858,"o":"m 144 0 l 144 972 l 217 972 l 217 582 l 504 582 q 757 513 656 582 q 858 303 858 443 q 763 82 858 164 q 511 0 668 0 l 144 0 m 217 67 l 499 67 q 708 126 633 67 q 783 300 783 185 q 706 460 783 406 q 490 515 629 515 l 217 515 l 217 67 z "},"Э":{"ha":1025,"x_min":54,"x_max":924,"o":"m 440 -17 q 54 150 218 -17 l 103 200 q 258 86 181 124 q 438 49 336 49 q 720 165 604 49 q 847 457 836 282 l 324 457 l 324 524 l 847 524 q 719 810 835 696 q 439 924 604 924 q 111 781 258 924 l 65 831 q 235 949 151 910 q 438 989 318 989 q 785 842 646 989 q 924 483 924 694 q 785 128 924 272 q 440 -17 647 -17 z "},"Ю":{"ha":1442,"x_min":144,"x_max":1340,"o":"m 886 -17 q 569 117 693 -17 q 435 456 444 251 l 217 456 l 217 0 l 144 0 l 144 972 l 217 972 l 217 522 l 435 522 q 572 856 446 724 q 889 989 697 989 q 1215 846 1089 989 q 1340 488 1340 703 q 1213 128 1340 272 q 886 -17 1086 -17 m 889 49 q 1160 173 1054 49 q 1265 486 1265 297 q 1158 798 1265 672 q 886 924 1050 924 q 615 799 721 924 q 510 486 510 675 q 617 174 510 300 q 889 49 725 49 z "},"Я":{"ha":1004,"x_min":67,"x_max":858,"o":"m 67 0 l 376 401 q 176 493 250 418 q 103 689 103 568 q 197 892 103 811 q 450 972 292 972 l 858 972 l 858 0 l 786 0 l 786 389 l 457 389 l 158 0 l 67 0 m 458 454 l 786 454 l 786 906 l 454 906 q 249 845 324 906 q 175 683 175 785 q 255 517 175 579 q 458 454 335 454 z "},"а":{"ha":797,"x_min":71,"x_max":682,"o":"m 344 -17 q 149 42 228 -17 q 71 208 71 101 q 156 378 71 317 q 381 439 240 439 q 615 408 500 439 l 615 439 q 554 600 615 544 q 382 656 493 656 q 160 599 271 656 l 135 658 q 386 719 267 719 q 610 642 532 719 q 682 442 682 569 l 682 0 l 615 0 l 615 118 q 344 -17 519 -17 m 349 47 q 538 109 460 47 q 617 265 617 171 l 617 346 q 376 378 492 378 q 205 333 265 378 q 144 210 144 288 q 200 90 144 133 q 349 47 256 47 z "},"б":{"ha":892,"x_min":97,"x_max":811,"o":"m 453 -17 q 197 90 297 -17 q 97 372 97 197 q 99 490 97 443 q 109 596 101 536 q 133 697 117 656 q 177 778 150 738 q 248 845 204 818 q 350 888 292 872 l 753 989 l 772 928 l 383 825 q 223 733 271 796 q 164 544 175 669 q 471 711 264 711 q 711 604 611 711 q 811 350 811 497 q 708 92 811 200 q 453 -17 606 -17 m 456 47 q 657 135 576 47 q 738 347 738 222 q 655 560 738 472 q 453 647 572 647 q 251 560 332 647 q 171 347 171 472 q 253 135 171 222 q 456 47 336 47 z "},"в":{"ha":806,"x_min":129,"x_max":722,"o":"m 129 0 l 129 708 l 453 708 q 619 660 557 708 q 682 532 682 613 q 563 369 682 419 q 678 307 633 351 q 722 193 722 263 q 653 53 722 106 q 468 0 583 0 l 129 0 m 197 61 l 460 61 q 600 99 549 61 q 651 203 651 138 q 598 300 651 265 q 443 335 544 335 l 197 335 l 197 61 m 197 392 l 443 392 q 566 427 519 392 q 613 528 613 463 q 569 615 613 582 q 447 647 526 647 l 197 647 l 197 392 z "},"г":{"ha":639,"x_min":129,"x_max":597,"o":"m 129 0 l 129 708 l 597 708 l 597 647 l 197 647 l 197 0 l 129 0 z "},"д":{"ha":847,"x_min":19,"x_max":806,"o":"m 19 -200 l 19 61 l 113 61 q 217 558 217 232 l 217 708 l 692 708 l 692 61 l 806 61 l 792 -200 l 736 -200 l 736 0 l 90 0 l 76 -200 l 19 -200 m 188 61 l 624 61 l 624 647 l 282 647 l 282 519 q 256 257 282 381 q 188 61 231 133 z "},"е":{"ha":811,"x_min":81,"x_max":742,"o":"m 428 -17 q 183 88 285 -17 q 81 356 81 192 q 177 618 81 511 q 417 725 274 725 q 652 619 563 725 q 742 354 742 514 q 740 326 742 338 l 153 326 q 242 123 163 199 q 431 47 322 47 q 674 158 569 47 l 721 117 q 428 -17 597 -17 m 153 388 l 668 388 q 594 583 660 504 q 414 663 529 663 q 236 584 310 663 q 153 388 163 506 z "},"ж":{"ha":1160,"x_min":36,"x_max":1124,"o":"m 36 0 l 336 401 l 54 708 l 140 708 l 546 257 l 546 708 l 614 708 l 614 257 l 1019 708 l 1106 708 l 822 401 l 1124 0 l 1040 0 l 779 353 l 614 174 l 614 0 l 546 0 l 546 174 l 381 354 l 119 0 l 36 0 z "},"з":{"ha":694,"x_min":63,"x_max":615,"o":"m 351 -14 q 63 92 192 -14 l 104 147 q 349 50 218 50 q 483 92 424 50 q 542 196 542 135 q 489 295 542 258 q 344 332 436 332 l 247 332 l 247 393 l 346 393 q 472 431 422 393 q 522 532 522 468 q 474 622 522 588 q 351 657 425 657 q 131 585 222 657 l 90 639 q 353 721 201 721 q 531 668 464 721 q 597 532 597 615 q 483 368 597 415 q 615 194 615 322 q 541 47 615 108 q 351 -14 467 -14 z "},"и":{"ha":875,"x_min":129,"x_max":746,"o":"m 129 0 l 129 708 l 197 708 l 197 90 l 678 708 l 746 708 l 746 0 l 678 0 l 678 618 l 197 0 l 129 0 z "},"й":{"ha":875,"x_min":129,"x_max":746,"o":"m 129 0 l 129 708 l 197 708 l 197 90 l 678 708 l 746 708 l 746 0 l 678 0 l 678 618 l 197 0 l 129 0 m 561 869 q 535 846 561 869 q 438 824 510 824 q 314 869 365 824 q 250 983 263 914 l 307 996 q 438 894 333 894 q 568 996 542 894 l 625 983 q 561 869 613 914 z "},"к":{"ha":772,"x_min":129,"x_max":736,"o":"m 129 0 l 129 708 l 197 708 l 197 254 l 636 708 l 726 708 l 417 394 l 736 0 l 650 0 l 369 346 l 197 172 l 197 0 l 129 0 z "},"л":{"ha":847,"x_min":6,"x_max":718,"o":"m 83 -11 q 6 0 44 -11 l 18 63 q 72 53 53 53 q 117 59 100 53 q 156 85 135 65 q 189 146 176 104 q 213 254 201 188 q 231 425 225 321 q 236 671 236 529 l 236 708 l 718 708 l 718 0 l 650 0 l 650 647 l 301 647 l 301 628 q 290 336 301 456 q 263 149 279 217 q 215 45 246 82 q 156 -1 185 8 q 83 -11 128 -11 z "},"м":{"ha":958,"x_min":129,"x_max":829,"o":"m 129 0 l 129 708 l 190 708 l 479 301 l 768 708 l 829 708 l 829 0 l 761 0 l 761 590 l 476 199 l 194 590 l 194 0 l 129 0 z "},"н":{"ha":865,"x_min":129,"x_max":736,"o":"m 129 0 l 129 708 l 197 708 l 197 393 l 668 393 l 668 708 l 736 708 l 736 0 l 668 0 l 668 332 l 197 332 l 197 0 l 129 0 z "},"о":{"ha":889,"x_min":81,"x_max":808,"o":"m 703 93 q 651 38 703 93 q 443 -17 599 -17 q 184 92 288 -17 q 81 354 81 201 q 185 615 81 506 q 446 725 290 725 q 705 616 601 725 q 808 354 808 507 q 703 93 808 203 m 446 47 q 649 138 564 47 q 735 354 735 228 q 649 572 735 482 q 443 661 564 661 q 239 572 324 661 q 154 354 154 482 q 239 137 154 226 q 446 47 324 47 z "},"п":{"ha":847,"x_min":129,"x_max":718,"o":"m 129 0 l 129 708 l 718 708 l 718 0 l 650 0 l 650 647 l 197 647 l 197 0 l 129 0 z "},"р":{"ha":917,"x_min":129,"x_max":833,"o":"m 129 -222 l 129 708 l 197 708 l 197 550 q 489 725 313 725 q 729 623 625 725 q 833 354 833 521 q 729 86 833 189 q 489 -17 625 -17 q 197 153 308 -17 l 197 -222 l 129 -222 m 482 49 q 681 131 601 49 q 760 354 760 214 q 678 575 760 490 q 482 660 597 660 q 280 573 367 660 q 193 353 193 486 q 280 135 193 221 q 482 49 367 49 z "},"с":{"ha":793,"x_min":81,"x_max":731,"o":"m 442 -17 q 185 92 289 -17 q 81 354 81 200 q 185 616 81 507 q 442 725 290 725 q 724 593 607 725 l 676 544 q 440 661 563 661 q 238 571 322 661 q 154 354 154 481 q 239 137 154 226 q 446 47 324 47 q 681 168 572 47 l 731 124 q 442 -17 607 -17 z "},"т":{"ha":682,"x_min":42,"x_max":640,"o":"m 307 0 l 307 647 l 42 647 l 42 708 l 640 708 l 640 647 l 375 647 l 375 0 l 307 0 z "},"у":{"ha":817,"x_min":54,"x_max":758,"o":"m 215 -226 q 75 -196 144 -226 l 99 -136 q 219 -162 153 -162 q 315 -125 275 -162 q 394 4 356 -87 l 54 708 l 133 708 l 428 75 l 683 708 l 758 708 l 451 -25 q 349 -180 406 -133 q 215 -226 293 -226 z "},"ф":{"ha":1188,"x_min":83,"x_max":1104,"o":"m 560 -222 l 560 64 q 372 -17 467 -17 q 163 84 242 -17 q 83 357 83 185 q 163 626 83 528 q 372 725 242 725 q 560 642 469 725 l 560 972 l 628 972 l 628 642 q 713 703 671 682 q 815 725 756 725 q 1025 626 946 725 q 1104 354 1104 526 q 1024 83 1104 183 q 815 -17 944 -17 q 713 3 751 -17 q 628 64 674 22 l 628 -222 l 560 -222 m 379 49 q 560 133 482 49 l 560 575 q 379 660 482 660 q 213 578 269 660 q 157 351 157 496 q 379 49 157 49 m 808 49 q 1031 354 1031 49 q 974 578 1031 497 q 808 660 918 660 q 628 575 706 660 l 628 133 q 808 49 706 49 z "},"х":{"ha":792,"x_min":63,"x_max":729,"o":"m 63 0 l 353 361 l 74 708 l 158 708 l 397 408 l 636 708 l 718 708 l 439 363 l 729 0 l 644 0 l 394 315 l 144 0 l 63 0 z "},"ц":{"ha":874,"x_min":129,"x_max":832,"o":"m 763 -200 l 763 0 l 129 0 l 129 708 l 197 708 l 197 61 l 650 61 l 650 708 l 718 708 l 718 61 l 832 61 l 818 -200 l 763 -200 z "},"ч":{"ha":778,"x_min":96,"x_max":649,"o":"m 581 0 l 581 310 q 461 260 532 282 q 326 238 390 238 q 158 290 219 238 q 96 443 96 343 l 96 708 l 164 708 l 164 442 q 206 338 164 376 q 324 300 249 300 q 459 322 388 300 q 581 378 531 343 l 581 708 l 649 708 l 649 0 l 581 0 z "},"ш":{"ha":1246,"x_min":129,"x_max":1117,"o":"m 129 0 l 129 708 l 197 708 l 197 61 l 589 61 l 589 708 l 657 708 l 657 61 l 1049 61 l 1049 708 l 1117 708 l 1117 0 l 129 0 z "},"щ":{"ha":1272,"x_min":129,"x_max":1231,"o":"m 1161 -200 l 1161 0 l 129 0 l 129 708 l 197 708 l 197 61 l 589 61 l 589 708 l 657 708 l 657 61 l 1049 61 l 1049 708 l 1117 708 l 1117 61 l 1231 61 l 1217 -200 l 1161 -200 z "},"ъ":{"ha":860,"x_min":28,"x_max":804,"o":"m 254 0 l 254 647 l 28 647 l 28 708 l 322 708 l 322 436 l 533 436 q 728 384 651 436 q 804 228 804 332 q 733 63 804 125 q 546 0 663 0 l 254 0 m 322 61 l 535 61 q 678 104 625 61 q 731 225 731 147 q 676 335 731 296 q 529 375 622 375 l 322 375 l 322 61 z "},"ы":{"ha":1018,"x_min":129,"x_max":889,"o":"m 129 0 l 129 708 l 197 708 l 197 436 l 408 436 q 603 384 526 436 q 679 228 679 332 q 608 63 679 125 q 421 0 538 0 l 129 0 m 197 61 l 410 61 q 553 104 500 61 q 606 225 606 147 q 551 335 606 296 q 404 375 497 375 l 197 375 l 197 61 m 821 0 l 821 708 l 889 708 l 889 0 l 821 0 z "},"ь":{"ha":735,"x_min":129,"x_max":679,"o":"m 129 0 l 129 708 l 197 708 l 197 436 l 408 436 q 603 384 526 436 q 679 228 679 332 q 608 63 679 125 q 421 0 538 0 l 129 0 m 197 61 l 410 61 q 553 104 500 61 q 606 225 606 147 q 551 335 606 296 q 404 375 497 375 l 197 375 l 197 61 z "},"э":{"ha":793,"x_min":63,"x_max":713,"o":"m 351 -17 q 63 124 178 -17 l 113 167 q 347 47 219 47 q 546 128 463 47 q 638 332 629 210 l 265 332 l 265 393 l 636 393 q 542 584 624 507 q 353 661 460 661 q 117 544 226 661 l 71 592 q 196 690 131 654 q 351 725 261 725 q 609 615 506 725 q 713 351 713 506 q 608 92 713 201 q 351 -17 503 -17 z "},"ю":{"ha":1139,"x_min":129,"x_max":1058,"o":"m 714 -17 q 474 81 567 -17 q 372 325 382 178 l 197 325 l 197 0 l 129 0 l 129 708 l 197 708 l 197 388 l 372 388 q 477 628 383 531 q 717 725 571 725 q 964 617 869 725 q 1058 354 1058 510 q 963 92 1058 200 q 714 -17 868 -17 m 717 47 q 912 135 839 47 q 985 354 985 222 q 910 573 985 485 q 714 661 835 661 q 519 574 592 661 q 446 354 446 486 q 521 135 446 224 q 717 47 596 47 z "},"я":{"ha":797,"x_min":72,"x_max":668,"o":"m 72 0 l 296 282 q 149 356 207 299 q 92 497 92 413 q 161 650 92 592 q 351 708 231 708 l 668 708 l 668 0 l 600 0 l 600 272 l 367 272 l 156 0 l 72 0 m 364 333 l 600 333 l 600 647 l 361 647 q 217 606 269 647 q 165 493 165 564 q 221 377 165 421 q 364 333 276 333 z "},"ё":{"ha":811,"x_min":81,"x_max":742,"o":"m 428 -17 q 183 88 285 -17 q 81 356 81 192 q 177 618 81 511 q 417 725 274 725 q 652 619 563 725 q 742 354 742 514 q 740 326 742 338 l 153 326 q 242 123 163 199 q 431 47 322 47 q 674 158 569 47 l 721 117 q 428 -17 597 -17 m 153 388 l 668 388 q 594 583 660 504 q 414 663 529 663 q 236 584 310 663 q 153 388 163 506 m 251 826 l 251 938 l 347 938 l 347 826 l 251 826 m 478 826 l 478 938 l 574 938 l 574 826 l 478 826 z "},"ђ":{"ha":851,"x_min":14,"x_max":736,"o":"m 453 -17 q 313 14 382 -17 l 336 74 q 457 47 390 47 q 608 113 549 47 q 668 288 668 179 l 668 421 q 608 597 668 532 q 443 663 549 663 q 267 591 338 663 q 197 410 197 519 l 197 0 l 129 0 l 129 806 l 14 806 l 14 868 l 129 868 l 129 1014 l 197 1014 l 197 868 l 515 868 l 515 806 l 197 806 l 197 576 q 453 725 282 725 q 660 644 585 725 q 736 433 736 563 l 736 275 q 660 65 736 146 q 453 -17 585 -17 z "},"ѓ":{"ha":639,"x_min":129,"x_max":597,"o":"m 129 0 l 129 708 l 597 708 l 597 647 l 197 647 l 197 0 l 129 0 m 286 826 l 408 1011 l 493 969 l 344 826 l 286 826 z "},"є":{"ha":793,"x_min":81,"x_max":731,"o":"m 442 -17 q 185 92 290 -17 q 81 351 81 201 q 184 615 81 506 q 442 725 288 725 q 597 690 532 725 q 722 592 663 654 l 676 544 q 440 661 567 661 q 251 584 333 661 q 156 393 169 507 l 528 393 l 528 332 l 154 332 q 247 128 164 210 q 446 47 329 47 q 681 167 574 47 l 731 124 q 442 -17 615 -17 z "},"ѕ":{"ha":690,"x_min":68,"x_max":603,"o":"m 358 -14 q 203 15 282 -14 q 68 89 125 43 l 108 143 q 363 50 229 50 q 485 88 436 50 q 533 188 533 125 q 485 274 533 244 q 346 329 438 303 q 275 350 297 343 q 213 375 253 357 q 153 411 172 393 q 119 459 135 429 q 103 526 103 489 q 168 667 103 613 q 336 722 233 722 q 588 644 471 722 l 551 588 q 333 658 444 658 q 217 623 261 658 q 172 532 172 588 q 184 490 172 510 q 212 458 196 471 q 258 433 228 446 q 309 413 288 419 q 369 394 331 406 q 456 367 422 379 q 527 331 489 354 q 584 273 565 307 q 603 193 603 239 q 533 43 603 100 q 358 -14 463 -14 z "},"і":{"ha":346,"x_min":131,"x_max":215,"o":"m 139 0 l 139 708 l 207 708 l 207 0 l 139 0 m 131 893 l 131 986 l 215 986 l 215 893 l 131 893 z "},"ї":{"ha":346,"x_min":13,"x_max":335,"o":"m 13 826 l 13 938 l 108 938 l 108 826 l 13 826 m 239 826 l 239 938 l 335 938 l 335 826 l 239 826 m 139 0 l 139 708 l 207 708 l 207 0 l 139 0 z "},"ј":{"ha":346,"x_min":-1,"x_max":215,"o":"m 56 -226 q -1 -221 26 -226 l -1 -161 q 54 -165 24 -165 q 116 -140 93 -165 q 139 -67 139 -115 l 139 708 l 207 708 l 207 -62 q 167 -185 207 -143 q 56 -226 126 -226 m 131 893 l 131 986 l 215 986 l 215 893 l 131 893 z "},"љ":{"ha":1256,"x_min":6,"x_max":1200,"o":"m 83 -11 q 6 0 44 -11 l 18 63 q 72 53 53 53 q 117 59 100 53 q 156 85 135 65 q 189 146 176 104 q 213 254 201 188 q 231 425 225 321 q 236 671 236 529 l 236 708 l 718 708 l 718 436 l 929 436 q 1124 384 1047 436 q 1200 228 1200 332 q 1129 63 1200 125 q 942 0 1058 0 l 650 0 l 650 647 l 301 647 l 301 628 q 290 336 301 456 q 263 149 279 217 q 215 45 246 82 q 156 -1 185 8 q 83 -11 128 -11 m 718 61 l 931 61 q 1074 104 1021 61 q 1126 225 1126 147 q 1072 335 1126 296 q 925 375 1018 375 l 718 375 l 718 61 z "},"њ":{"ha":1274,"x_min":129,"x_max":1218,"o":"m 129 0 l 129 708 l 197 708 l 197 417 l 668 417 l 668 708 l 736 708 l 736 417 l 947 417 q 1143 369 1068 417 q 1218 218 1218 321 q 1148 58 1218 117 q 960 0 1078 0 l 668 0 l 668 356 l 197 356 l 197 0 l 129 0 m 736 61 l 949 61 q 1092 100 1040 61 q 1144 215 1144 139 q 1092 320 1144 285 q 943 356 1039 356 l 736 356 l 736 61 z "},"ћ":{"ha":851,"x_min":14,"x_max":736,"o":"m 129 0 l 129 806 l 14 806 l 14 868 l 129 868 l 129 1014 l 197 1014 l 197 868 l 515 868 l 515 806 l 197 806 l 197 576 q 453 725 282 725 q 660 644 585 725 q 736 433 736 563 l 736 0 l 668 0 l 668 421 q 608 597 668 532 q 443 663 549 663 q 267 591 338 663 q 197 410 197 519 l 197 0 l 129 0 z "},"ќ":{"ha":772,"x_min":129,"x_max":736,"o":"m 129 0 l 129 708 l 197 708 l 197 254 l 636 708 l 726 708 l 417 394 l 736 0 l 650 0 l 369 346 l 197 172 l 197 0 l 129 0 m 310 826 l 432 1011 l 517 969 l 368 826 l 310 826 z "},"ў":{"ha":817,"x_min":54,"x_max":758,"o":"m 215 -226 q 75 -196 144 -226 l 99 -136 q 219 -162 153 -162 q 315 -125 275 -162 q 394 4 356 -87 l 54 708 l 133 708 l 428 75 l 683 708 l 758 708 l 451 -25 q 349 -180 406 -133 q 215 -226 293 -226 m 551 869 q 526 846 551 869 q 428 824 500 824 q 304 869 356 824 q 240 983 253 914 l 297 996 q 428 894 324 894 q 558 996 532 894 l 615 983 q 551 869 603 914 z "},"џ":{"ha":856,"x_min":129,"x_max":718,"o":"m 394 -200 l 394 0 l 129 0 l 129 708 l 197 708 l 197 63 l 650 63 l 650 708 l 718 708 l 718 0 l 464 0 l 464 -200 l 394 -200 z "},"Ґ":{"ha":819,"x_min":144,"x_max":751,"o":"m 144 0 l 144 972 l 676 972 l 676 1194 l 738 1194 l 751 906 l 217 906 l 217 0 l 144 0 z "},"ґ":{"ha":639,"x_min":129,"x_max":597,"o":"m 129 0 l 129 708 l 528 708 l 528 908 l 583 908 l 597 647 l 197 647 l 197 0 l 129 0 z "},"–":{"ha":733,"x_min":97,"x_max":636,"o":"m 97 376 l 97 449 l 636 449 l 636 376 l 97 376 z "},"—":{"ha":1247,"x_min":97,"x_max":1150,"o":"m 97 376 l 97 449 l 1150 449 l 1150 376 l 97 376 z "},"‘":{"ha":319,"x_min":107,"x_max":239,"o":"m 107 713 l 107 815 q 133 918 107 881 q 222 979 160 956 l 239 944 q 161 843 161 906 l 161 831 l 199 831 l 199 713 l 107 713 z "},"’":{"ha":319,"x_min":81,"x_max":213,"o":"m 97 706 l 81 740 q 158 842 158 779 l 158 854 l 121 854 l 121 972 l 213 972 l 213 869 q 186 767 213 804 q 97 706 160 729 z "},"‚":{"ha":319,"x_min":74,"x_max":206,"o":"m 90 -149 l 74 -114 q 151 -12 151 -75 l 151 0 l 114 0 l 114 118 l 206 118 l 206 15 q 179 -87 206 -50 q 90 -149 153 -125 z "},"“":{"ha":569,"x_min":107,"x_max":489,"o":"m 107 713 l 107 815 q 133 918 107 881 q 222 979 160 956 l 239 944 q 161 843 161 906 l 161 831 l 199 831 l 199 713 l 107 713 m 357 713 l 357 815 q 383 918 357 881 q 472 979 410 956 l 489 944 q 411 843 411 906 l 411 831 l 449 831 l 449 713 l 357 713 z "},"”":{"ha":569,"x_min":81,"x_max":463,"o":"m 97 706 l 81 740 q 158 842 158 779 l 158 854 l 121 854 l 121 972 l 213 972 l 213 869 q 186 767 213 804 q 97 706 160 729 m 347 706 l 331 740 q 408 842 408 779 l 408 854 l 371 854 l 371 972 l 463 972 l 463 869 q 436 767 463 804 q 347 706 410 729 z "},"„":{"ha":569,"x_min":74,"x_max":456,"o":"m 90 -149 l 74 -114 q 151 -12 151 -75 l 151 0 l 114 0 l 114 118 l 206 118 l 206 15 q 179 -87 206 -50 q 90 -149 153 -125 m 340 -149 l 324 -114 q 401 -12 401 -75 l 401 0 l 364 0 l 364 118 l 456 118 l 456 15 q 429 -87 456 -50 q 340 -149 403 -125 z "},"†":{"ha":569,"x_min":88,"x_max":482,"o":"m 254 331 l 261 728 l 88 718 l 88 781 l 260 771 l 250 972 l 319 972 l 310 771 l 482 781 l 482 718 l 308 728 l 315 331 l 254 331 z "},"‡":{"ha":597,"x_min":101,"x_max":496,"o":"m 264 0 l 274 201 l 101 192 l 101 254 l 275 244 l 268 486 l 275 728 l 101 718 l 101 781 l 274 771 l 264 972 l 333 972 l 324 771 l 496 781 l 496 718 l 322 728 l 329 486 l 322 244 l 496 254 l 496 192 l 324 201 l 333 0 l 264 0 z "},"•":{"ha":653,"x_min":154,"x_max":499,"o":"m 448 367 q 423 342 448 367 q 326 317 397 317 q 205 367 256 317 q 154 490 154 418 q 206 610 154 560 q 326 661 258 661 q 447 610 394 661 q 499 488 499 560 q 448 367 499 417 z "},"…":{"ha":944,"x_min":114,"x_max":831,"o":"m 114 0 l 114 115 l 203 115 l 203 0 l 114 0 m 428 0 l 428 115 l 517 115 l 517 0 l 428 0 m 742 0 l 742 115 l 831 115 l 831 0 l 742 0 z "},"‰":{"ha":1667,"x_min":76,"x_max":1590,"o":"m 178 0 l 892 972 l 967 972 l 253 0 l 178 0 m 853 -11 q 700 62 760 -11 q 640 238 640 135 q 701 413 640 339 q 856 486 761 486 q 1008 413 949 486 q 1068 238 1068 339 q 1008 63 1068 136 q 853 -11 947 -11 m 856 49 q 956 103 917 49 q 996 238 996 157 q 954 372 996 318 q 853 426 913 426 q 752 372 792 426 q 713 238 713 317 q 754 103 713 157 q 856 49 796 49 m 1375 -11 q 1222 62 1282 -11 q 1163 238 1163 135 q 1223 413 1163 339 q 1378 486 1283 486 q 1531 413 1471 486 q 1590 238 1590 339 q 1530 63 1590 136 q 1375 -11 1469 -11 m 1378 49 q 1478 103 1439 49 q 1518 238 1518 157 q 1476 372 1518 318 q 1375 426 1435 426 q 1274 372 1314 426 q 1235 238 1235 317 q 1276 103 1235 157 q 1378 49 1318 49 m 289 486 q 136 559 196 486 q 76 735 76 632 q 137 910 76 836 q 292 983 197 983 q 444 910 385 983 q 504 735 504 836 q 444 560 504 633 q 289 486 383 486 m 292 546 q 392 600 353 546 q 432 735 432 654 q 390 869 432 815 q 289 924 349 924 q 188 869 228 924 q 149 735 149 814 q 190 600 149 654 q 292 546 232 546 z "},"‹":{"ha":432,"x_min":71,"x_max":344,"o":"m 293 58 l 71 349 l 71 360 l 293 650 l 344 617 l 154 356 l 344 92 l 293 58 z "},"›":{"ha":432,"x_min":88,"x_max":361,"o":"m 139 58 l 88 92 l 278 353 l 88 617 l 139 650 l 361 360 l 361 349 l 139 58 z "},"⁄":{"ha":569,"x_min":-93,"x_max":632,"o":"m -93 -136 l 557 1053 l 632 1053 l -18 -136 l -93 -136 z "},"€":{"ha":1000,"x_min":82,"x_max":921,"o":"m 594 -17 q 348 81 453 -17 q 207 340 243 179 l 82 340 l 82 407 l 197 407 q 193 486 193 444 q 200 578 193 533 l 82 578 l 82 644 l 213 644 q 352 893 251 797 q 585 989 453 989 q 918 794 789 989 l 863 757 q 740 885 803 844 q 582 925 676 925 q 399 847 479 925 q 283 644 318 769 l 678 644 l 678 578 l 271 578 q 264 486 264 536 q 268 407 264 447 l 678 407 l 678 340 l 281 340 q 399 128 314 208 q 599 47 483 47 q 868 225 753 47 l 921 190 q 594 -17 786 -17 z "},"№":{"ha":1324,"x_min":90,"x_max":1268,"o":"m 90 0 l 90 972 l 172 972 l 732 126 l 732 972 l 801 972 l 801 0 l 733 0 l 160 864 l 160 0 l 90 0 m 922 242 l 922 297 l 1253 297 l 1253 242 l 922 242 m 1216 460 q 1190 433 1216 460 q 1088 406 1164 406 q 960 459 1011 406 q 908 589 908 513 q 960 718 908 664 q 1089 772 1013 772 q 1217 719 1165 772 q 1268 589 1268 665 q 1216 460 1268 514 m 1089 460 q 1175 497 1142 460 q 1208 589 1208 533 q 1174 681 1208 643 q 1088 718 1139 718 q 1001 681 1035 718 q 968 589 968 644 q 1003 497 968 535 q 1089 460 1038 460 z "},"℗":{"ha":1153,"x_min":74,"x_max":1079,"o":"m 932 131 q 858 57 932 131 q 575 -17 785 -17 q 219 131 365 -17 q 74 486 74 278 q 221 841 74 693 q 578 989 368 989 q 933 842 788 989 q 1079 486 1079 694 q 932 131 1079 279 m 247 157 q 313 90 247 157 q 575 22 379 22 q 904 158 771 22 q 1038 489 1038 294 q 906 815 1038 681 q 578 950 774 950 q 249 814 382 950 q 115 483 115 678 q 247 157 115 292 m 411 243 l 411 751 l 607 751 q 752 709 699 751 q 806 589 806 667 q 746 465 806 508 q 597 421 686 421 l 472 421 l 472 243 l 411 243 m 472 478 l 599 478 q 704 507 665 478 q 743 589 743 536 q 603 694 743 694 l 472 694 l 472 478 z "},"™":{"ha":958,"x_min":36,"x_max":897,"o":"m 176 544 l 176 925 l 36 925 l 36 972 l 365 972 l 365 925 l 225 925 l 225 544 l 176 544 m 463 544 l 463 972 l 514 972 l 681 718 l 847 972 l 897 972 l 897 544 l 849 544 l 849 886 l 683 639 l 676 639 l 511 886 l 511 544 l 463 544 z "},"∂":{"ha":694,"x_min":0,"x_max":694,"o":"m 0 0 l 0 972 l 694 972 l 694 0 l 0 0 m 113 68 l 583 68 l 347 422 l 113 68 m 68 133 l 306 486 l 68 839 l 68 133 m 625 133 l 625 839 l 388 486 l 625 133 m 347 549 l 583 903 l 113 903 l 347 549 z "},"∆":{"ha":1097,"x_min":75,"x_max":1022,"o":"m 75 0 l 514 979 l 583 979 l 1022 0 l 75 0 m 179 67 l 914 67 l 547 900 l 179 67 z "},"∏":{"ha":694,"x_min":0,"x_max":694,"o":"m 0 0 l 0 972 l 694 972 l 694 0 l 0 0 m 113 68 l 583 68 l 347 422 l 113 68 m 68 133 l 306 486 l 68 839 l 68 133 m 625 133 l 625 839 l 388 486 l 625 133 m 347 549 l 583 903 l 113 903 l 347 549 z "},"∑":{"ha":694,"x_min":0,"x_max":694,"o":"m 0 0 l 0 972 l 694 972 l 694 0 l 0 0 m 113 68 l 583 68 l 347 422 l 113 68 m 68 133 l 306 486 l 68 839 l 68 133 m 625 133 l 625 839 l 388 486 l 625 133 m 347 549 l 583 903 l 113 903 l 347 549 z "},"−":{"ha":889,"x_min":129,"x_max":760,"o":"m 129 456 l 129 526 l 760 526 l 760 456 l 129 456 z "},"√":{"ha":668,"x_min":-10,"x_max":681,"o":"m 681 1092 l 389 -297 l 313 -297 l 79 183 l 17 153 l -10 208 l 113 268 l 343 -212 l 613 1092 l 681 1092 z "},"∞":{"ha":1003,"x_min":56,"x_max":947,"o":"m 239 301 q 106 356 157 301 q 56 492 56 410 q 106 631 56 574 q 236 688 156 688 q 280 683 258 688 q 324 667 301 679 q 362 647 346 656 q 401 620 378 639 q 435 592 425 601 q 471 560 446 583 q 503 532 496 538 q 558 582 518 544 q 620 636 599 619 q 681 670 642 653 q 760 688 721 688 q 894 631 842 688 q 947 492 947 575 q 898 354 947 407 q 764 301 849 301 q 664 326 715 301 q 581 377 613 351 q 503 447 549 403 q 458 409 496 442 q 405 366 419 376 q 358 335 390 356 q 299 308 326 315 q 239 301 271 301 m 240 368 q 456 492 325 368 q 410 529 446 500 q 353 574 374 558 q 298 606 332 590 q 236 621 264 621 q 153 583 185 621 q 122 492 122 544 q 154 402 122 436 q 240 368 186 368 m 767 368 q 850 403 819 368 q 881 492 881 439 q 850 585 881 549 q 763 621 819 621 q 549 492 685 621 q 574 469 551 489 q 604 443 597 449 q 632 422 611 438 q 665 399 653 406 q 695 384 676 393 q 731 372 714 375 q 767 368 749 368 z "},"∫":{"ha":694,"x_min":0,"x_max":694,"o":"m 0 0 l 0 972 l 694 972 l 694 0 l 0 0 m 113 68 l 583 68 l 347 422 l 113 68 m 68 133 l 306 486 l 68 839 l 68 133 m 625 133 l 625 839 l 388 486 l 625 133 m 347 549 l 583 903 l 113 903 l 347 549 z "},"≈":{"ha":889,"x_min":82,"x_max":807,"o":"m 807 694 q 758 567 799 618 q 643 515 717 515 q 440 567 579 515 q 250 618 300 618 q 172 585 203 618 q 135 503 142 551 l 82 503 q 246 685 113 685 q 448 633 308 685 q 640 582 588 582 q 717 613 689 582 q 756 694 746 644 l 807 694 m 807 471 q 757 344 799 396 q 643 292 715 292 q 440 343 578 292 q 250 394 301 394 q 172 361 203 394 q 135 279 142 328 l 82 279 q 246 461 113 461 q 449 410 310 461 q 640 358 588 358 q 717 390 689 358 q 756 471 746 421 l 807 471 z "},"≠":{"ha":889,"x_min":129,"x_max":760,"o":"m 129 610 l 129 681 l 503 681 l 596 853 l 654 822 l 578 681 l 760 681 l 760 610 l 540 610 l 411 368 l 760 368 l 760 297 l 372 297 l 286 135 l 228 167 l 297 297 l 129 297 l 129 368 l 336 368 l 465 610 l 129 610 z "},"≤":{"ha":889,"x_min":100,"x_max":790,"o":"m 790 135 l 100 403 l 100 478 l 790 746 l 790 671 l 192 440 l 790 210 l 790 135 m 790 7 l 100 7 l 100 74 l 790 74 l 790 7 z "},"≥":{"ha":889,"x_min":99,"x_max":789,"o":"m 789 403 l 99 135 l 99 210 l 696 440 l 99 671 l 99 746 l 789 478 l 789 403 m 789 7 l 99 7 l 99 74 l 789 74 l 789 7 z "},"◊":{"ha":889,"x_min":175,"x_max":715,"o":"m 715 494 l 481 -49 l 407 -49 l 175 494 l 407 1038 l 481 1038 l 715 494 m 642 494 l 444 960 l 250 494 l 444 29 l 642 494 z "},"":{"ha":694,"x_min":160,"x_max":535,"o":"m 471 869 q 445 846 471 869 q 347 824 419 824 q 224 869 275 824 q 160 983 172 914 l 217 996 q 347 894 243 894 q 478 996 451 894 l 535 983 q 471 869 522 914 z "},"":{"ha":694,"x_min":160,"x_max":535,"o":"m 471 869 q 445 846 471 869 q 347 824 419 824 q 224 869 275 824 q 160 983 172 914 l 217 996 q 347 894 243 894 q 478 996 451 894 l 535 983 q 471 869 522 914 z "},"":{"ha":694,"x_min":0,"x_max":694,"o":"m 0 0 l 0 972 l 694 972 l 694 0 l 0 0 m 113 68 l 583 68 l 347 422 l 113 68 m 68 133 l 306 486 l 68 839 l 68 133 m 625 133 l 625 839 l 388 486 l 625 133 m 347 549 l 583 903 l 113 903 l 347 549 z "},"ﬀ":{"ha":1006,"x_min":68,"x_max":990,"o":"m 171 0 l 171 646 l 68 646 l 68 708 l 171 708 l 171 778 q 233 963 171 900 q 382 1018 289 1018 q 488 1001 439 1018 l 488 938 q 382 956 429 956 q 239 776 239 956 l 239 708 l 486 708 l 486 646 l 239 646 l 239 0 l 171 0 m 674 0 l 674 646 l 571 646 l 571 708 l 674 708 l 674 778 q 736 963 674 900 q 885 1018 792 1018 q 990 1001 942 1018 l 990 938 q 885 956 932 956 q 742 776 742 956 l 742 708 l 989 708 l 989 646 l 742 646 l 742 0 l 674 0 z "},"ﬁ":{"ha":849,"x_min":68,"x_max":718,"o":"m 171 0 l 171 646 l 68 646 l 68 708 l 171 708 l 171 778 q 233 963 171 900 q 382 1018 289 1018 q 488 1001 439 1018 l 488 938 q 382 956 429 956 q 239 776 239 956 l 239 708 l 486 708 l 486 646 l 239 646 l 239 0 l 171 0 m 642 0 l 642 708 l 710 708 l 710 0 l 642 0 m 633 893 l 633 986 l 718 986 l 718 893 l 633 893 z "},"ﬂ":{"ha":849,"x_min":68,"x_max":710,"o":"m 171 0 l 171 646 l 68 646 l 68 708 l 171 708 l 171 778 q 233 963 171 900 q 382 1018 289 1018 q 488 1001 439 1018 l 488 938 q 382 956 429 956 q 239 776 239 956 l 239 708 l 486 708 l 486 646 l 239 646 l 239 0 l 171 0 m 642 0 l 642 1014 l 710 1014 l 710 0 l 642 0 z "},"ﬃ":{"ha":1351,"x_min":68,"x_max":1221,"o":"m 171 0 l 171 646 l 68 646 l 68 708 l 171 708 l 171 778 q 233 963 171 900 q 382 1018 289 1018 q 488 1001 439 1018 l 488 938 q 382 956 429 956 q 239 776 239 956 l 239 708 l 486 708 l 486 646 l 239 646 l 239 0 l 171 0 m 674 0 l 674 646 l 571 646 l 571 708 l 674 708 l 674 778 q 736 963 674 900 q 885 1018 792 1018 q 990 1001 942 1018 l 990 938 q 885 956 932 956 q 742 776 742 956 l 742 708 l 989 708 l 989 646 l 742 646 l 742 0 l 674 0 m 1144 0 l 1144 708 l 1213 708 l 1213 0 l 1144 0 m 1136 893 l 1136 986 l 1221 986 l 1221 893 l 1136 893 z "},"ﬄ":{"ha":1351,"x_min":68,"x_max":1213,"o":"m 171 0 l 171 646 l 68 646 l 68 708 l 171 708 l 171 778 q 233 963 171 900 q 382 1018 289 1018 q 488 1001 439 1018 l 488 938 q 382 956 429 956 q 239 776 239 956 l 239 708 l 486 708 l 486 646 l 239 646 l 239 0 l 171 0 m 674 0 l 674 646 l 571 646 l 571 708 l 674 708 l 674 778 q 736 963 674 900 q 885 1018 792 1018 q 990 1001 942 1018 l 990 938 q 885 956 932 956 q 742 776 742 956 l 742 708 l 989 708 l 989 646 l 742 646 l 742 0 l 674 0 m 1144 0 l 1144 1014 l 1213 1014 l 1213 0 l 1144 0 z "}}}
